<svg width="140" height="55" viewBox="0 0 140 55" fill="none" xmlns="http://www.w3.org/2000/svg">
<path d="M0.739627 21.0722C0.330716 16.794 3.40433 12.9883 7.60472 12.5717L126.791 0.753975C130.992 0.337491 134.728 3.46802 135.137 7.7462L137.565 33.1468C137.974 37.425 134.9 41.2308 130.7 41.6472L11.5133 53.465C7.31292 53.8815 3.57634 50.751 3.16743 46.4728L0.739627 21.0722Z" fill="#F7F7F6"/>
<path d="M28.3551 28.0391L25.5364 28.3186C25.3693 27.7158 25.116 27.1961 24.7763 26.7591C24.4366 26.3221 24.0374 25.9622 23.5787 25.6795C23.12 25.3969 22.6177 25.199 22.0719 25.0858C21.532 24.9721 20.967 24.9446 20.3767 25.0031C19.3107 25.1088 18.3821 25.4765 17.5911 26.1061C16.8061 26.735 16.2201 27.6012 15.8331 28.7048C15.4521 29.8077 15.3343 31.1198 15.4797 32.6412C15.6263 34.1748 15.9909 35.4453 16.5736 36.4527C17.1623 37.4594 17.9041 38.1909 18.7989 38.6472C19.6937 39.1034 20.6681 39.2793 21.7221 39.1748C22.3064 39.1168 22.8529 38.9821 23.3616 38.7706C23.8758 38.5525 24.3315 38.2627 24.7286 37.9013C25.1258 37.5398 25.4499 37.1145 25.701 36.6251C25.9576 36.1291 26.1144 35.5748 26.1714 34.9623L28.991 34.692C28.929 35.6332 28.7184 36.5148 28.3592 37.337C28.0054 38.1523 27.5182 38.8756 26.8976 39.5068C26.2824 40.1314 25.5588 40.6397 24.7269 41.0318C23.8949 41.424 22.97 41.6704 21.9521 41.7714C20.35 41.9303 18.8856 41.6853 17.5589 41.0366C16.2317 40.3817 15.1375 39.3662 14.2764 37.9901C13.4213 36.6135 12.8979 34.9222 12.7061 32.9162C12.5138 30.9041 12.7101 29.1413 13.2951 27.6281C13.8795 26.1087 14.7611 24.9004 15.94 24.0032C17.1183 23.0999 18.5055 22.5692 20.1016 22.4109C21.0834 22.3136 22.0126 22.367 22.8894 22.5711C23.7717 22.7685 24.5795 23.1095 25.3128 23.5941C26.0456 24.0726 26.6727 24.6854 27.194 25.4325C27.7147 26.1736 28.1018 27.0424 28.3551 28.0391ZM35.2361 40.5099C34.3568 40.5971 33.5459 40.5104 32.8035 40.2496C32.0606 39.9827 31.4508 39.5508 30.9742 38.9541C30.5037 38.3566 30.2242 37.5947 30.1356 36.6685C30.0594 35.871 30.1472 35.1997 30.3991 34.6545C30.651 34.1094 31.0186 33.6611 31.5018 33.3097C31.985 32.9584 32.5355 32.6747 33.1533 32.4587C33.771 32.2425 34.4043 32.062 35.0532 31.9172C35.875 31.7367 36.542 31.5901 37.0541 31.4773C37.5656 31.3586 37.9318 31.2138 38.1526 31.0433C38.3734 30.8728 38.468 30.6219 38.4363 30.2906L38.4302 30.2263C38.3534 29.4226 38.071 28.822 37.5831 28.4245C37.1012 28.0265 36.4236 27.8707 35.5503 27.9573C34.6408 28.0475 33.9437 28.3241 33.459 28.787C32.9797 29.2433 32.6644 29.7296 32.5132 30.2463L29.9182 29.9091C30.1373 29.0204 30.5107 28.2837 31.0385 27.6987C31.5717 27.1071 32.2063 26.654 32.9423 26.3395C33.6778 26.0189 34.4641 25.8171 35.3013 25.7341C35.8554 25.6791 36.4491 25.6884 37.0824 25.7618C37.7211 25.8285 38.3281 26.0099 38.9036 26.3058C39.4851 26.6011 39.9816 27.0565 40.3931 27.6722C40.804 28.2817 41.0587 29.1017 41.1572 30.1324L42.0543 39.5181L39.4163 39.7797L39.2316 37.8473L39.1232 37.858C38.9825 38.2312 38.7539 38.6068 38.4374 38.985C38.1209 39.3632 37.6995 39.6929 37.1731 39.9742C36.6467 40.2555 36.001 40.4342 35.2361 40.5099ZM35.6123 38.2433C36.3591 38.1693 36.9832 37.9557 37.4845 37.6026C37.9918 37.2488 38.3608 36.8159 38.5916 36.3038C38.8277 35.7849 38.9191 35.2464 38.8658 34.6882L38.6916 32.8663C38.6047 32.9739 38.4267 33.0844 38.1579 33.1978C37.8945 33.3044 37.591 33.4058 37.2476 33.5017C36.9035 33.5916 36.5682 33.6774 36.2416 33.7594C35.9145 33.8352 35.6409 33.8995 35.421 33.9522C34.9035 34.0717 34.4355 34.2326 34.0171 34.4351C33.6047 34.6371 33.2834 34.9011 33.0531 35.2274C32.8283 35.5469 32.7393 35.9521 32.7862 36.4428C32.8513 37.1238 33.1475 37.6146 33.6748 37.9153C34.2015 38.2098 34.8474 38.3192 35.6123 38.2433ZM49.2526 24.5365L49.4637 26.745L41.8838 27.4965L41.6727 25.2881L49.2526 24.5365ZM43.3818 21.7003L46.0831 21.4325L47.361 34.8026C47.4121 35.3363 47.5288 35.7303 47.7112 35.9848C47.893 36.233 48.112 36.394 48.3683 36.4676C48.6301 36.5346 48.9086 36.5534 49.2037 36.5242C49.4205 36.5027 49.6088 36.4685 49.7685 36.4217C49.9281 36.3749 50.0523 36.3378 50.1409 36.3105L50.846 38.5349C50.6952 38.6118 50.4782 38.6953 50.195 38.7853C49.9123 38.8814 49.5545 38.9541 49.1214 39.0032C48.4119 39.0859 47.737 39.0228 47.0969 38.8138C46.4568 38.6048 45.92 38.2369 45.4866 37.7101C45.0532 37.1834 44.7958 36.4936 44.7143 35.6409L43.3818 21.7003ZM56.1335 38.438C55.2542 38.5252 54.4433 38.4383 53.7009 38.1775C52.958 37.9106 52.3482 37.4787 51.8717 36.882C51.4011 36.2846 51.1216 35.5228 51.033 34.5964C50.9568 33.7989 51.0447 33.1276 51.2966 32.5825C51.5484 32.0373 51.916 31.5891 52.3992 31.2377C52.8825 30.8864 53.4329 30.6026 54.0507 30.3866C54.6684 30.1705 55.3018 29.9901 55.9506 29.8452C56.7724 29.6647 57.4394 29.518 57.9515 29.4053C58.463 29.2865 58.8292 29.1418 59.05 28.9713C59.2708 28.8008 59.3654 28.5499 59.3338 28.2186L59.3276 28.1542C59.2508 27.3506 58.9684 26.75 58.4805 26.3525C57.9986 25.9544 57.321 25.7987 56.4477 25.8852C55.5382 25.9755 54.8411 26.252 54.3564 26.715C53.8771 27.1712 53.5619 27.6577 53.4106 28.1743L50.8156 27.837C51.0347 26.9484 51.4081 26.2116 51.9359 25.6266C52.4691 25.035 53.1037 24.5819 53.8397 24.2674C54.5752 23.9469 55.3615 23.745 56.1987 23.662C56.7528 23.6071 57.3465 23.6163 57.9798 23.6898C58.6185 23.7565 59.2256 23.9378 59.8011 24.2337C60.3826 24.5291 60.8791 24.9846 61.2905 25.6002C61.7014 26.2096 61.9561 27.0297 62.0546 28.0603L62.9517 37.446L60.3137 37.7076L60.129 35.7753L60.0206 35.7861C59.8799 36.1591 59.6513 36.5348 59.3348 36.9129C59.0183 37.2911 58.5969 37.6208 58.0705 37.9022C57.5441 38.1835 56.8985 38.3621 56.1335 38.438ZM56.5097 36.1713C57.2565 36.0972 57.8806 35.8836 58.3819 35.5305C58.8892 35.1768 59.2582 34.7438 59.489 34.2317C59.7251 33.7129 59.8166 33.1744 59.7632 32.6161L59.5891 30.7942C59.5021 30.9019 59.3242 31.0125 59.0553 31.1258C58.7919 31.2324 58.4885 31.3337 58.145 31.4297C57.8009 31.5195 57.4656 31.6054 57.139 31.6873C56.8119 31.7631 56.5383 31.8274 56.3184 31.8801C55.8009 31.9996 55.3329 32.1605 54.9145 32.363C54.5021 32.565 54.1808 32.8291 53.9505 33.1553C53.7257 33.4748 53.6367 33.88 53.6837 34.3707C53.7487 35.0517 54.0449 35.5425 54.5722 35.8432C55.099 36.1378 55.7448 36.2471 56.5097 36.1713ZM65.9233 18.1276L67.7246 36.9728L65.0233 37.2407L63.222 18.3955L65.9233 18.1276ZM75.7048 36.4695C74.4038 36.5985 73.2394 36.4075 72.2117 35.8963C71.184 35.3851 70.3499 34.6101 69.7095 33.5713C69.0691 32.5325 68.6791 31.2831 68.5395 29.8231C68.3994 28.357 68.5449 27.0483 68.976 25.8971C69.407 24.7458 70.0784 23.8185 70.9901 23.115C71.9017 22.4116 73.008 21.9953 74.309 21.8664C75.6099 21.7373 76.7743 21.9284 77.802 22.4396C78.8298 22.9508 79.6642 23.7288 80.3052 24.7737C80.9462 25.8186 81.3367 27.0742 81.4769 28.5403C81.6164 30.0004 81.4703 31.3029 81.0387 32.448C80.607 33.5931 79.9353 34.5174 79.0237 35.2208C78.112 35.9243 77.0057 36.3405 75.7048 36.4695ZM75.493 34.159C76.3363 34.0754 77.0132 33.7792 77.524 33.2702C78.0347 32.7614 78.3865 32.1164 78.5794 31.3356C78.7783 30.5542 78.8344 29.7096 78.7476 28.8017C78.6614 27.8999 78.4467 27.0852 78.1036 26.3575C77.7658 25.6231 77.2979 25.0533 76.6999 24.6481C76.1018 24.243 75.3811 24.0823 74.5379 24.1659C73.6887 24.2501 73.006 24.55 72.4898 25.0656C71.9797 25.5806 71.6254 26.2319 71.4271 27.0195C71.2342 27.8004 71.1809 28.6417 71.267 29.5434C71.3538 30.4513 71.5658 31.2693 71.9029 31.9977C72.2461 32.7253 72.7164 33.2887 73.3139 33.6877C73.9174 34.086 74.6438 34.2432 75.493 34.159ZM89.9879 40.413C88.8857 40.5223 87.923 40.4691 87.0998 40.2535C86.2827 40.0373 85.601 39.7116 85.0547 39.2766C84.5085 38.8415 84.0844 38.3479 83.7823 37.7958L86.0109 36.5902C86.1994 36.844 86.4435 37.1077 86.7432 37.3815C87.0496 37.6606 87.4479 37.8844 87.9383 38.0525C88.4346 38.22 89.0562 38.2668 89.803 38.1927C90.8269 38.0912 91.6488 37.7527 92.2687 37.1772C92.8892 36.6079 93.1466 35.7712 93.0411 34.6669L92.7755 31.888L92.6038 31.9051C92.4699 32.2218 92.267 32.5794 91.995 32.9779C91.729 33.3758 91.344 33.7361 90.8397 34.0585C90.3355 34.381 89.6588 34.5843 88.8095 34.6685C87.7134 34.7772 86.7007 34.6145 85.7715 34.1802C84.8477 33.7392 84.0809 33.0319 83.471 32.0582C82.8666 31.0778 82.4926 29.8361 82.3489 28.3332C82.2053 26.8301 82.3321 25.5172 82.7294 24.394C83.1327 23.2703 83.7468 22.3796 84.5716 21.7219C85.3958 21.0581 86.3651 20.6709 87.4793 20.5604C88.3406 20.4751 89.0503 20.5533 89.6085 20.7952C90.1661 21.031 90.6109 21.3275 90.943 21.6847C91.2811 22.0413 91.5455 22.3587 91.7362 22.6371L91.935 22.6174L91.716 20.3262L94.3631 20.0637L95.7439 34.5105C95.86 35.725 95.6782 36.7494 95.1986 37.5834C94.7189 38.4174 94.0242 39.0684 93.1144 39.5364C92.2105 40.0037 91.1684 40.296 89.9879 40.413ZM89.1877 32.3274C89.9647 32.2504 90.6036 32.0012 91.1044 31.58C91.6107 31.152 91.9693 30.5778 92.1801 29.8571C92.3963 29.1296 92.4578 28.2783 92.3646 27.3028C92.2737 26.352 92.0552 25.5284 91.7089 24.832C91.3627 24.1356 90.9022 23.6115 90.3274 23.2598C89.7521 22.9019 89.0699 22.7622 88.2809 22.8404C87.4678 22.9209 86.8108 23.2029 86.3097 23.6861C85.8081 24.163 85.4537 24.7804 85.2464 25.5378C85.0451 26.2947 84.9876 27.124 85.0738 28.0258C85.1623 28.9521 85.3786 29.7511 85.7225 30.423C86.0663 31.0949 86.5281 31.6003 87.1077 31.9391C87.6933 32.2774 88.3866 32.4068 89.1877 32.3274Z" fill="#101010"/>
<path fill-rule="evenodd" clip-rule="evenodd" d="M117.882 12.8645L122.012 12.455C123.359 12.3214 124.558 13.3258 124.689 14.6985L125.091 18.9045C125.223 20.2772 124.236 21.4982 122.889 21.6319L118.759 22.0413C117.412 22.1749 116.213 21.1705 116.082 19.7979L115.68 15.5918C115.548 14.2192 116.535 12.9981 117.882 12.8645ZM106.431 13.9997L110.561 13.5902C111.908 13.4566 113.107 14.461 113.238 15.8337L113.64 20.0397C113.771 21.4123 112.785 22.6334 111.438 22.767L107.308 23.1765C105.961 23.3101 104.762 22.3057 104.63 20.933L104.229 16.727C104.097 15.3543 105.083 14.1333 106.431 13.9997ZM111.676 25.2523L107.546 25.6618C106.199 25.7954 105.213 27.0165 105.344 28.3891L105.746 32.5951C105.877 33.9678 107.076 34.9722 108.423 34.8386L112.553 34.4292C113.9 34.2955 114.887 33.0745 114.755 31.7018L114.353 27.4958C114.222 26.1231 113.023 25.1187 111.676 25.2523ZM118.997 24.5266L123.127 24.1172C124.475 23.9835 125.673 24.988 125.805 26.3606L126.207 30.5666C126.338 31.9393 125.352 33.1604 124.004 33.294L119.875 33.7034C118.527 33.837 117.328 32.8326 117.197 31.46L116.795 27.2539C116.664 25.8813 117.65 24.6602 118.997 24.5266Z" fill="#EB4A00"/>
</svg>
