<?xml version="1.0" encoding="UTF-8"?> <svg xmlns="http://www.w3.org/2000/svg" width="190" height="53" viewBox="0 0 190 53" fill="none"> <path d="M99.3915 5.56417C98.2651 8.97194 97.4325 12.9975 98.3352 14.3401C98.4716 14.5431 98.6837 14.7499 99.2293 14.7499C100.035 14.7499 100.337 14.4435 100.509 14.175C101.477 12.6798 100.541 8.745 99.3915 5.56417ZM99.2293 16.7166C98.1384 16.7166 97.2644 16.2741 96.7026 15.437C94.5909 12.2927 97.7792 4.0702 98.4399 2.45394L99.3081 0.328354L100.247 2.42243C100.676 3.3768 104.364 11.8414 102.16 15.2441C101.726 15.9161 100.865 16.7166 99.2293 16.7166Z" fill="#F2AA17"></path> <path d="M18.426 50.2622C18.8559 50.2622 19.0722 50.4652 19.0722 50.8737C19.0722 51.2809 18.8559 51.4864 18.426 51.4864H0.635489C0.36778 51.4864 0.197384 51.4297 0.127107 51.3137C0.0432884 51.2305 0 51.0867 0 50.8838V20.1383C0 19.7374 0.213635 19.5382 0.635489 19.5382C1.03026 19.5382 1.22769 19.7374 1.22769 20.1383V50.2622H18.426Z" fill="#2C2C2C"></path> <path d="M24.4265 38.961C24.4265 40.6075 24.7348 42.1469 25.3514 43.5803C25.9679 45.0138 26.8088 46.2619 27.877 47.3285C28.9451 48.3963 30.1945 49.2372 31.6276 49.8537C33.0608 50.4702 34.6021 50.7791 36.2517 50.7791C37.8984 50.7791 39.4398 50.4702 40.873 49.8537C42.3062 49.2372 43.5583 48.3963 44.6264 47.3285C45.6946 46.2619 46.5355 45.0138 47.1521 43.5803C47.7686 42.1469 48.0768 40.6075 48.0768 38.961V20.1383C48.0768 19.7374 48.2905 19.5382 48.7205 19.5382C49.1234 19.5382 49.3235 19.7374 49.3235 20.1383V39.1451C49.31 40.3352 49.1449 41.4787 48.8286 42.5743C48.515 43.6724 48.0742 44.6973 47.5062 45.6492C46.9412 46.6036 46.2596 47.471 45.4647 48.2501C44.6697 49.0317 43.7909 49.7025 42.8308 50.2622C41.8709 50.822 40.8352 51.2519 39.7237 51.552C38.6124 51.852 37.4551 52.0033 36.2517 52.0033C34.4453 52.0033 32.7499 51.6629 31.1653 50.9808C29.5833 50.3001 28.2015 49.3721 27.0279 48.1959C25.8516 47.0221 24.9241 45.6429 24.2426 44.0582C23.5611 42.4734 23.2231 40.779 23.2231 38.9724V20.1383C23.2231 19.7374 23.4232 19.5382 23.8235 19.5382C24.2237 19.5382 24.4265 19.7374 24.4265 20.1383V38.961Z" fill="#2C2C2C"></path> <path d="M72.2435 49.5512L86.1753 18.9343C86.2618 18.7338 86.4051 18.6342 86.6052 18.6342C86.9784 18.6342 87.2082 18.8775 87.2948 19.3642L89.8745 50.7564C89.8745 50.9266 89.8313 51.1006 89.7447 51.2708C89.6582 51.4435 89.5148 51.5305 89.3148 51.5305C89.1147 51.5305 88.9551 51.4675 88.8415 51.3465C88.728 51.2242 88.6712 51.0565 88.6712 50.8409L86.2618 21.6877L72.8033 51.3565C72.6735 51.673 72.4734 51.8306 72.2003 51.8306C71.9569 51.8306 71.7703 51.673 71.6405 51.3565L58.1821 21.6877L55.7727 50.8409C55.7727 51.0565 55.7158 51.2242 55.6023 51.3465C55.486 51.4675 55.3292 51.5305 55.1291 51.5305C54.929 51.5305 54.7857 51.4435 54.6992 51.2708C54.6126 51.1006 54.5693 50.9266 54.5693 50.7564L57.149 19.3642C57.2357 18.8775 57.4655 18.6342 57.8387 18.6342C58.0387 18.6342 58.1821 18.7338 58.2686 18.9343L72.2003 49.5512L72.2219 49.6155L72.2435 49.5512Z" fill="#2C2C2C"></path> <path d="M94.9692 20.1383C94.9692 19.7374 95.1856 19.5382 95.6155 19.5382C96.0156 19.5382 96.2159 19.7374 96.2159 20.1383V50.8838C96.2159 51.2872 96.0156 51.4864 95.6155 51.4864C95.1856 51.4864 94.9692 51.2872 94.9692 50.8838V20.1383Z" fill="#2C2C2C"></path> <path d="M102.987 20.1383C102.987 19.7374 103.203 19.5382 103.633 19.5382C104.033 19.5382 104.233 19.7374 104.233 20.1383V50.8838C104.233 51.2872 104.033 51.4864 103.633 51.4864C103.203 51.4864 102.987 51.2872 102.987 50.8838V20.1383Z" fill="#2C2C2C"></path> <path d="M132.487 19.5155C132.917 19.5155 133.132 19.7184 133.132 20.1269C133.132 20.5354 132.917 20.7409 132.487 20.7409H112.276V38.4012H128.831C129.291 38.4012 129.52 38.6181 129.52 39.0455C129.52 39.4477 129.291 39.6481 128.831 39.6481H112.276V50.2622H132.96C133.39 50.2622 133.606 50.4652 133.606 50.8737C133.606 51.2809 133.39 51.4864 132.96 51.4864H111.459C111.302 51.4864 111.192 51.4221 111.127 51.2922C111.062 51.1649 111.029 51.0275 111.029 50.8838V20.1194C111.029 19.9454 111.054 19.8155 111.105 19.7298C111.154 19.6453 111.213 19.5835 111.275 19.5482C111.34 19.5129 111.413 19.4966 111.492 19.5054C111.57 19.5129 111.632 19.5155 111.676 19.5155H132.487Z" fill="#2C2C2C"></path> <path d="M149.493 41.5543C150.754 41.5543 151.9 41.4119 152.932 41.1244C153.966 40.8382 154.885 40.4462 155.696 39.9507C156.505 39.4565 157.205 38.8715 157.792 38.1983C158.378 37.525 158.863 36.8064 159.243 36.0386C159.623 35.2734 159.906 34.4728 160.093 33.642C160.28 32.8099 160.372 31.9929 160.372 31.1898C160.372 30.3729 160.28 29.5484 160.093 28.7176C159.906 27.8855 159.623 27.0849 159.243 26.3083C158.863 25.5355 158.378 24.808 157.792 24.126C157.205 23.4477 156.505 22.8551 155.696 22.3521C154.885 21.8529 153.966 21.457 152.932 21.1708C151.9 20.8846 150.754 20.7409 149.493 20.7409H140.074V41.5543H149.493ZM161.619 31.1898C161.619 32.1493 161.501 33.115 161.264 34.0832C161.028 35.0489 160.667 35.9781 160.18 36.8657C159.69 37.7557 159.082 38.5828 158.352 39.3506C157.618 40.1158 156.758 40.7651 155.771 41.2946L160.157 50.5408C160.285 50.7564 160.304 50.9594 160.212 51.1548C160.117 51.3465 159.928 51.4574 159.642 51.4864C159.425 51.4864 159.236 51.4196 159.071 51.2809C158.905 51.146 158.765 50.914 158.652 50.5837L154.526 41.8985C153.062 42.4986 151.385 42.8012 149.493 42.8012H140.074V50.8838C140.074 51.2872 139.875 51.4864 139.474 51.4864C139.072 51.4864 138.871 51.2872 138.871 50.8838V20.1383C138.871 19.8949 138.928 19.7374 139.044 19.6642L139.301 19.5382H149.493C151.569 19.5382 153.371 19.8836 154.89 20.5783C156.407 21.2767 157.667 22.1819 158.662 23.2989C159.658 24.4185 160.401 25.6678 160.889 27.0521C161.375 28.4339 161.619 29.8131 161.619 31.1898Z" fill="#2C2C2C"></path> <path d="M188.881 19.5155C189.312 19.5155 189.527 19.7184 189.527 20.1269C189.527 20.5354 189.312 20.7409 188.881 20.7409H168.671V38.4012H185.226C185.685 38.4012 185.915 38.6181 185.915 39.0455C185.915 39.4477 185.685 39.6481 185.226 39.6481H168.671V50.2622H189.355C189.785 50.2622 190 50.4652 190 50.8737C190 51.2809 189.785 51.4864 189.355 51.4864H167.854C167.697 51.4864 167.586 51.4221 167.521 51.2922C167.457 51.1649 167.424 51.0275 167.424 50.8838V20.1194C167.424 19.9454 167.448 19.8155 167.5 19.7298C167.548 19.6453 167.608 19.5835 167.67 19.5482C167.734 19.5129 167.808 19.4966 167.887 19.5054C167.965 19.5129 168.027 19.5155 168.07 19.5155H188.881Z" fill="#2C2C2C"></path> </svg> 