<svg display="none" xmlns="http://www.w3.org/2000/svg" xmlns:xlink="http://www.w3.org/1999/xlink">
   <symbol id="logo" viewBox="0 0 190 53">
      <path
         d="M99.3915 5.56417C98.2651 8.97194 97.4325 12.9975 98.3352 14.3401C98.4716 14.5431 98.6837 14.7499 99.2293 14.7499C100.035 14.7499 100.337 14.4435 100.509 14.175C101.477 12.6798 100.541 8.745 99.3915 5.56417ZM99.2293 16.7166C98.1384 16.7166 97.2644 16.2741 96.7026 15.437C94.5909 12.2927 97.7792 4.0702 98.4399 2.45394L99.3081 0.328354L100.247 2.42243C100.676 3.3768 104.364 11.8414 102.16 15.2441C101.726 15.9161 100.865 16.7166 99.2293 16.7166Z"
         fill="#F2AA17"></path>
      <path
         d="M18.426 50.2622C18.8559 50.2622 19.0722 50.4652 19.0722 50.8737C19.0722 51.2809 18.8559 51.4864 18.426 51.4864H0.635489C0.36778 51.4864 0.197384 51.4297 0.127107 51.3137C0.0432884 51.2305 0 51.0867 0 50.8838V20.1383C0 19.7374 0.213635 19.5382 0.635489 19.5382C1.03026 19.5382 1.22769 19.7374 1.22769 20.1383V50.2622H18.426Z"
         fill="#2C2C2C"></path>
      <path
         d="M24.4265 38.961C24.4265 40.6075 24.7348 42.1469 25.3514 43.5803C25.9679 45.0138 26.8088 46.2619 27.877 47.3285C28.9451 48.3963 30.1945 49.2372 31.6276 49.8537C33.0608 50.4702 34.6021 50.7791 36.2517 50.7791C37.8984 50.7791 39.4398 50.4702 40.873 49.8537C42.3062 49.2372 43.5583 48.3963 44.6264 47.3285C45.6946 46.2619 46.5355 45.0138 47.1521 43.5803C47.7686 42.1469 48.0768 40.6075 48.0768 38.961V20.1383C48.0768 19.7374 48.2905 19.5382 48.7205 19.5382C49.1234 19.5382 49.3235 19.7374 49.3235 20.1383V39.1451C49.31 40.3352 49.1449 41.4787 48.8286 42.5743C48.515 43.6724 48.0742 44.6973 47.5062 45.6492C46.9412 46.6036 46.2596 47.471 45.4647 48.2501C44.6697 49.0317 43.7909 49.7025 42.8308 50.2622C41.8709 50.822 40.8352 51.2519 39.7237 51.552C38.6124 51.852 37.4551 52.0033 36.2517 52.0033C34.4453 52.0033 32.7499 51.6629 31.1653 50.9808C29.5833 50.3001 28.2015 49.3721 27.0279 48.1959C25.8516 47.0221 24.9241 45.6429 24.2426 44.0582C23.5611 42.4734 23.2231 40.779 23.2231 38.9724V20.1383C23.2231 19.7374 23.4232 19.5382 23.8235 19.5382C24.2237 19.5382 24.4265 19.7374 24.4265 20.1383V38.961Z"
         fill="#2C2C2C"></path>
      <path
         d="M72.2435 49.5512L86.1753 18.9343C86.2618 18.7338 86.4051 18.6342 86.6052 18.6342C86.9784 18.6342 87.2082 18.8775 87.2948 19.3642L89.8745 50.7564C89.8745 50.9266 89.8313 51.1006 89.7447 51.2708C89.6582 51.4435 89.5148 51.5305 89.3148 51.5305C89.1147 51.5305 88.9551 51.4675 88.8415 51.3465C88.728 51.2242 88.6712 51.0565 88.6712 50.8409L86.2618 21.6877L72.8033 51.3565C72.6735 51.673 72.4734 51.8306 72.2003 51.8306C71.9569 51.8306 71.7703 51.673 71.6405 51.3565L58.1821 21.6877L55.7727 50.8409C55.7727 51.0565 55.7158 51.2242 55.6023 51.3465C55.486 51.4675 55.3292 51.5305 55.1291 51.5305C54.929 51.5305 54.7857 51.4435 54.6992 51.2708C54.6126 51.1006 54.5693 50.9266 54.5693 50.7564L57.149 19.3642C57.2357 18.8775 57.4655 18.6342 57.8387 18.6342C58.0387 18.6342 58.1821 18.7338 58.2686 18.9343L72.2003 49.5512L72.2219 49.6155L72.2435 49.5512Z"
         fill="#2C2C2C"></path>
      <path
         d="M94.9692 20.1383C94.9692 19.7374 95.1856 19.5382 95.6155 19.5382C96.0156 19.5382 96.2159 19.7374 96.2159 20.1383V50.8838C96.2159 51.2872 96.0156 51.4864 95.6155 51.4864C95.1856 51.4864 94.9692 51.2872 94.9692 50.8838V20.1383Z"
         fill="#2C2C2C"></path>
      <path
         d="M102.987 20.1383C102.987 19.7374 103.203 19.5382 103.633 19.5382C104.033 19.5382 104.233 19.7374 104.233 20.1383V50.8838C104.233 51.2872 104.033 51.4864 103.633 51.4864C103.203 51.4864 102.987 51.2872 102.987 50.8838V20.1383Z"
         fill="#2C2C2C"></path>
      <path
         d="M132.487 19.5155C132.917 19.5155 133.132 19.7184 133.132 20.1269C133.132 20.5354 132.917 20.7409 132.487 20.7409H112.276V38.4012H128.831C129.291 38.4012 129.52 38.6181 129.52 39.0455C129.52 39.4477 129.291 39.6481 128.831 39.6481H112.276V50.2622H132.96C133.39 50.2622 133.606 50.4652 133.606 50.8737C133.606 51.2809 133.39 51.4864 132.96 51.4864H111.459C111.302 51.4864 111.192 51.4221 111.127 51.2922C111.062 51.1649 111.029 51.0275 111.029 50.8838V20.1194C111.029 19.9454 111.054 19.8155 111.105 19.7298C111.154 19.6453 111.213 19.5835 111.275 19.5482C111.34 19.5129 111.413 19.4966 111.492 19.5054C111.57 19.5129 111.632 19.5155 111.676 19.5155H132.487Z"
         fill="#2C2C2C"></path>
      <path
         d="M149.493 41.5543C150.754 41.5543 151.9 41.4119 152.932 41.1244C153.966 40.8382 154.885 40.4462 155.696 39.9507C156.505 39.4565 157.205 38.8715 157.792 38.1983C158.378 37.525 158.863 36.8064 159.243 36.0386C159.623 35.2734 159.906 34.4728 160.093 33.642C160.28 32.8099 160.372 31.9929 160.372 31.1898C160.372 30.3729 160.28 29.5484 160.093 28.7176C159.906 27.8855 159.623 27.0849 159.243 26.3083C158.863 25.5355 158.378 24.808 157.792 24.126C157.205 23.4477 156.505 22.8551 155.696 22.3521C154.885 21.8529 153.966 21.457 152.932 21.1708C151.9 20.8846 150.754 20.7409 149.493 20.7409H140.074V41.5543H149.493ZM161.619 31.1898C161.619 32.1493 161.501 33.115 161.264 34.0832C161.028 35.0489 160.667 35.9781 160.18 36.8657C159.69 37.7557 159.082 38.5828 158.352 39.3506C157.618 40.1158 156.758 40.7651 155.771 41.2946L160.157 50.5408C160.285 50.7564 160.304 50.9594 160.212 51.1548C160.117 51.3465 159.928 51.4574 159.642 51.4864C159.425 51.4864 159.236 51.4196 159.071 51.2809C158.905 51.146 158.765 50.914 158.652 50.5837L154.526 41.8985C153.062 42.4986 151.385 42.8012 149.493 42.8012H140.074V50.8838C140.074 51.2872 139.875 51.4864 139.474 51.4864C139.072 51.4864 138.871 51.2872 138.871 50.8838V20.1383C138.871 19.8949 138.928 19.7374 139.044 19.6642L139.301 19.5382H149.493C151.569 19.5382 153.371 19.8836 154.89 20.5783C156.407 21.2767 157.667 22.1819 158.662 23.2989C159.658 24.4185 160.401 25.6678 160.889 27.0521C161.375 28.4339 161.619 29.8131 161.619 31.1898Z"
         fill="#2C2C2C"></path>
      <path
         d="M188.881 19.5155C189.312 19.5155 189.527 19.7184 189.527 20.1269C189.527 20.5354 189.312 20.7409 188.881 20.7409H168.671V38.4012H185.226C185.685 38.4012 185.915 38.6181 185.915 39.0455C185.915 39.4477 185.685 39.6481 185.226 39.6481H168.671V50.2622H189.355C189.785 50.2622 190 50.4652 190 50.8737C190 51.2809 189.785 51.4864 189.355 51.4864H167.854C167.697 51.4864 167.586 51.4221 167.521 51.2922C167.457 51.1649 167.424 51.0275 167.424 50.8838V20.1194C167.424 19.9454 167.448 19.8155 167.5 19.7298C167.548 19.6453 167.608 19.5835 167.67 19.5482C167.734 19.5129 167.808 19.4966 167.887 19.5054C167.965 19.5129 168.027 19.5155 168.07 19.5155H188.881Z"
         fill="#2C2C2C"></path>
   </symbol>

   <symbol id="catalog" viewBox="0 0 45 45" fill="#EB4A00" stroke="none">
      <path d="M39.5833 0H30.4167C27.4251 0 25 2.42512 25 5.41666V14.5833C25 17.5749 27.4251 20 30.4167 20H39.5833C42.5749 20 45 17.5749 45 14.5833V5.41666C45 2.42512 42.5749 0 39.5833 0Z" />
      <path d="M14.5833 0H5.41666C2.42512 0 0 2.42512 0 5.41666V14.5833C0 17.5749 2.42512 20 5.41666 20H14.5833C17.5749 20 20 17.5749 20 14.5833V5.41666C20 2.42512 17.5749 0 14.5833 0Z" />
      <path d="M14.5833 25H5.41666C2.42512 25 0 27.4251 0 30.4167V39.5833C0 42.5749 2.42512 45 5.41666 45H14.5833C17.5749 45 20 42.5749 20 39.5833V30.4167C20 27.4251 17.5749 25 14.5833 25Z" />
      <path d="M39.5833 25.0002H30.4167C27.4251 25.0002 25 27.4254 25 30.4169V39.5836C25 42.5751 27.4251 45.0002 30.4167 45.0002H39.5833C42.5749 45.0002 45 42.5751 45 39.5836V30.4169C45 27.4254 42.5749 25.0002 39.5833 25.0002Z" />
   </symbol>

   <symbol id="search" viewBox="0 0 45 45">
      <path d="M20.0001 36C28.8366 36 36 28.8366 36 20.0001C36 11.1634 28.8366 4 20.0001 4C11.1635 4 4 11.1634 4 20.0001C4 28.8366 11.1635 36 20.0001 36Z" stroke-width="3" stroke-linecap="round" stroke-linejoin="round" />
      <path d="M32 32L42 42" stroke-width="3" stroke-miterlimit="10" stroke-linecap="round" />
   </symbol>

   <symbol id="favorite" viewBox="0 0 45 45">
      <path
      d="M38.6123 4.86484C36.5679 3.37817 34.146 2.7514 31.7515 3.08937C29.3569 3.42732 27.1348 4.70949 25.4568 6.72154L23.0057 9.52333H22.9482L20.5257 6.72154C18.8477 4.70949 16.6255 3.42732 14.231 3.08937C11.8364 2.7514 9.41456 3.37817 7.37021 4.86484C6.17545 5.76327 5.16827 6.9597 4.4219 8.36709C3.67552 9.77448 3.20875 11.3574 3.05559 13.0007C2.90243 14.6439 3.06671 16.3061 3.53649 17.8664C4.00626 19.4266 4.76971 20.8456 5.77126 22.0201L22.8811 43L40.2399 22.0201C41.2401 20.8432 42.0017 19.4224 42.4691 17.8607C42.9366 16.299 43.0983 14.636 42.9425 12.9926C42.7865 11.3492 42.3169 9.76688 41.5679 8.36085C40.8187 6.95483 39.809 5.7605 38.6123 4.86484Z" stroke-width="3" />
   </symbol>

   <symbol id="backet" viewBox="0 0 45 45">
      <path
      d="M15.5 17.3752V8.62095C15.5 4.96429 18.6339 2 22.4999 2C26.3659 2 29.5 4.96429 29.5 8.62095V17.3752M9.04515 38.4851L5.12807 19.266C4.39419 15.6653 6.90718 12.2495 10.2902 12.2495H34.7098C38.0927 12.2495 40.6058 15.6653 39.872 19.266L35.9547 38.4851C35.4171 41.1231 33.2713 43 30.7927 43H14.2073C11.7288 43 9.5828 41.1231 9.04515 38.4851Z" stroke-width="3" />
   </symbol>

   <symbol id="footerCatalog" viewBox="0 0 45 45">
      <path d="M39.5833 0H30.4167C27.4251 0 25 2.42512 25 5.41666V14.5833C25 17.5749 27.4251 20 30.4167 20H39.5833C42.5749 20 45 17.5749 45 14.5833V5.41666C45 2.42512 42.5749 0 39.5833 0Z" fill="#EB4A00" />
      <path d="M14.5833 0H5.41666C2.42512 0 0 2.42512 0 5.41666V14.5833C0 17.5749 2.42512 20 5.41666 20H14.5833C17.5749 20 20 17.5749 20 14.5833V5.41666C20 2.42512 17.5749 0 14.5833 0Z" fill="#EB4A00" />
      <path d="M14.5833 25H5.41666C2.42512 25 0 27.4251 0 30.4167V39.5833C0 42.5749 2.42512 45 5.41666 45H14.5833C17.5749 45 20 42.5749 20 39.5833V30.4167C20 27.4251 17.5749 25 14.5833 25Z" fill="#EB4A00" />
      <path d="M39.5833 25.0002H30.4167C27.4251 25.0002 25 27.4254 25 30.4169V39.5836C25 42.5751 27.4251 45.0002 30.4167 45.0002H39.5833C42.5749 45.0002 45 42.5751 45 39.5836V30.4169C45 27.4254 42.5749 25.0002 39.5833 25.0002Z" fill="#EB4A00" />
   </symbol>

   <symbol id="footerClient" viewBox="0 0 45 45">
      <path fill-rule="evenodd" clip-rule="evenodd" d="M7.24361 1.0175C0.740812 4.16592 -2.01691 13.5915 1.61528 20.2548C2.63883 22.1327 21.9248 45 22.4849 45C23.045 45 42.3309 22.1327 43.3545 20.2548C47.9762 11.7763 42.2819 0.12603 33.4948 0.0841315C29.7335 0.0659588 27.4912 1.04325 24.8663 3.84285L22.4849 6.38301L20.1034 3.84184C16.577 0.0790837 11.4902 -1.03803 7.24361 1.0175Z" fill="#EB4A00" />
   </symbol>

   <symbol id="footerContact" viewBox="0 0 45 45">
      <path fill-rule="evenodd" clip-rule="evenodd" d="M4.65543 0.106088C2.5185 0.573146 0.858435 2.10064 0.205362 4.20048L0 4.86066V22.5097V40.1586L0.205362 40.8188C0.512613 41.807 0.95918 42.5408 1.70974 43.291C2.46029 44.0412 3.19439 44.4876 4.18298 44.7947L4.84344 45H22.5H40.1566L40.817 44.7947C41.8056 44.4876 42.5397 44.0412 43.2903 43.291C44.0408 42.5408 44.4874 41.807 44.7946 40.8188L45 40.1586V22.5097V4.86066L44.7946 4.20048C44.4874 3.21231 44.0408 2.47853 43.2903 1.7283C42.5617 0.999982 41.835 0.55035 40.861 0.225098L40.2446 0.019295L22.7202 0.00362682C8.34558 -0.00922452 5.09856 0.00917222 4.65543 0.106088ZM23.7673 10.6238C25.7109 11.1207 27.3469 12.6858 27.9102 14.5874C28.1317 15.3351 28.1786 16.5399 28.0157 17.3028C27.4341 20.0285 25.1384 21.8966 22.3758 21.8922C20.7452 21.8895 19.5366 21.396 18.3964 20.267C17.1912 19.0735 16.6768 17.8833 16.6644 16.2599C16.6514 14.5599 17.1453 13.335 18.3153 12.1645C19.7957 10.6838 21.7935 10.1192 23.7673 10.6238ZM28.6885 23.502C30.7426 24.5948 32.5717 26.52 33.6416 28.7154C34.4299 30.333 34.7738 31.7819 34.7802 33.5128C34.7844 34.6116 34.7675 34.7376 34.5574 35.1854C34.2669 35.8044 33.5989 36.4722 32.9796 36.7625L32.4951 36.9897H22.5881H12.681L12.1794 36.7547C11.5395 36.4549 10.9264 35.8422 10.6265 35.2025C10.4078 34.7361 10.3915 34.6181 10.3927 33.5128C10.3942 32.1794 10.5038 31.4951 10.9225 30.2058C11.8822 27.2494 14.0738 24.6968 16.8338 23.3204L17.6401 22.9182L18.6391 23.4159C20.0786 24.1331 20.8255 24.3086 22.4119 24.3029C23.4364 24.2992 23.828 24.2604 24.3933 24.1072C25.1313 23.9072 26.3157 23.38 26.8644 23.0072L27.1868 22.7883L27.5953 22.963C27.82 23.0591 28.312 23.3016 28.6885 23.502Z" fill="#EB4A00" />
   </symbol>

   <symbol id="footerPaymentVisa" viewBox="0 0 75 50">
      <path d="M0 6.25C0 2.79822 2.79822 0 6.25 0H68.75C72.2019 0 75 2.79822 75 6.25V43.75C75 47.2018 72.2019 50 68.75 50H6.25C2.79822 50 0 47.2018 0 43.75V6.25Z" fill="white" />
      <path d="M64.5468 15.6799H60.6178C59.4299 15.6799 58.5162 16.0454 57.9679 17.2333L50.4753 34.3203H55.775C55.775 34.3203 56.6886 32.0359 56.8715 31.4877C57.4197 31.4877 62.628 31.4877 63.359 31.4877C63.5417 32.1273 63.9986 34.2289 63.9986 34.2289H68.7501L64.5468 15.6799ZM58.3335 27.6499C58.7902 26.5534 60.3436 22.4416 60.3436 22.4416C60.3436 22.533 60.8005 21.3451 60.9833 20.7055L61.3487 22.3502C61.3487 22.3502 62.3539 26.8276 62.5367 27.7413H58.3335V27.6499Z" fill="#3362AB" />
      <path d="M50.8403 28.1977C50.8403 32.0354 47.3681 34.5938 41.9771 34.5938C39.6927 34.5938 37.4997 34.137 36.3118 33.5887L37.0428 29.3855L37.6824 29.6597C39.3272 30.3906 40.4237 30.6648 42.4339 30.6648C43.8959 30.6648 45.4492 30.1166 45.4492 28.8373C45.4492 28.0149 44.8097 27.4667 42.7994 26.5529C40.8805 25.6392 38.3221 24.1771 38.3221 21.5273C38.3221 17.8723 41.8856 15.4053 46.9113 15.4053C48.8301 15.4053 50.4749 15.7707 51.48 16.2276L50.749 20.2481L50.3834 19.8826C49.4698 19.5171 48.2818 19.1516 46.5457 19.1516C44.6269 19.243 43.7132 20.0654 43.7132 20.7963C43.7132 21.6188 44.8097 22.2584 46.5457 23.0807C49.4698 24.4513 50.8403 26.0047 50.8403 28.1977Z" fill="#3362AB" />
      <path d="M6.25 15.8625L6.34138 15.4971H14.1996C15.2961 15.4971 16.1184 15.8625 16.3926 17.0504L18.1286 25.2741C16.3926 20.8881 12.372 17.3245 6.25 15.8625Z" fill="#F9B50B" />
      <path d="M29.1854 15.6797L21.2359 34.2287H15.8447L11.276 18.6951C14.5655 20.7966 17.3067 24.0862 18.3118 26.3705L18.8601 28.2894L23.7943 15.5884H29.1854V15.6797Z" fill="#3362AB" />
      <path d="M31.2873 15.5884H36.3129L33.1148 34.2287H28.0892L31.2873 15.5884Z" fill="#3362AB" />
   </symbol>

   <symbol id="footerPaymentMaster" viewBox="0 0 75 50">
      <path d="M-0.273438 7.9614C-0.273438 3.56444 3.29101 0 7.68797 0H66.7652C71.1621 0 74.7266 3.56444 74.7266 7.9614V42.0386C74.7266 46.4356 71.1621 50 66.7652 50H7.68798C3.29102 50 -0.273438 46.4356 -0.273438 42.0386V7.9614Z" fill="white" />
      <path d="M45.0513 10.2001L28.9121 10.2556L29.4012 39.8022L45.5403 39.7467L45.0513 10.2001Z" fill="#FF5F00" />
      <path d="M29.974 25.0874C29.8741 19.0779 32.5663 13.7381 36.7829 10.2745C33.6 7.77699 29.6099 6.27511 25.2845 6.28993C15.0372 6.32503 6.88653 14.7668 7.05934 25.1659C7.23216 35.565 15.6624 43.95 25.9096 43.9149C30.2352 43.9001 34.175 42.3711 37.2744 39.852C32.9439 36.4699 30.0738 31.097 29.974 25.0874Z"
      fill="#EB001B" />
      <path d="M67.3928 24.8344C67.5656 35.2335 59.4149 43.6753 49.1677 43.7103C44.8423 43.7251 40.852 42.2233 37.6693 39.7257C41.9375 36.2619 44.5781 30.9224 44.4781 24.9128C44.3783 18.9033 41.509 13.5827 37.1777 10.1483C40.2772 7.62921 44.217 6.10017 48.5424 6.08535C58.7898 6.05026 67.2209 14.4875 67.3928 24.8344Z"
      fill="#F79E1B" />
   </symbol>

   <symbol id="footerSocialLike" viewBox="0 0 124 124">
      <path d="M62 124C96.2417 124 124 96.2417 124 62C124 27.7583 96.2417 0 62 0C27.7583 0 0 27.7583 0 62C0 96.2417 27.7583 124 62 124Z" fill="currentColor" />
      <path fill-rule="evenodd" clip-rule="evenodd" d="M48.0051 37.584C43.3857 39.1684 40.5699 41.6921 38.2408 46.3359C37.1411 48.5289 36.9961 49.3579 37.0003 53.4372C37.0081 60.4451 37.2253 60.7889 50.6033 74.9584L61.9716 87.0001L73.2278 75.2015C86.6437 61.1399 87.0002 60.5764 87.0002 53.4372C87.0002 49.6267 86.8178 48.4298 85.9561 46.594C84.2595 42.979 81.9076 40.4918 78.5399 38.7513C75.7653 37.3171 75.0295 37.1509 71.4566 37.1509C67.9241 37.1509 67.1582 37.3191 64.7327 38.6288L61.9956 40.1072L59.3414 38.6779C56.1756 36.9734 51.1881 36.4921 48.0051 37.584ZM57.3652 42.4388C58.6385 43.0693 60.18 44.1554 60.7913 44.8521L61.9021 46.1186L63.539 44.609C65.8603 42.4694 68.5714 41.3061 71.2566 41.2969C74.7494 41.2847 76.9206 42.1166 79.2489 44.3587C81.8988 46.9114 83.2148 49.9232 83.2148 53.4372C83.2148 58.2594 82.154 59.8783 71.8521 70.777C66.7127 76.2136 62.2735 80.6621 61.9868 80.6621C61.6997 80.6621 57.2573 76.1966 52.1142 70.7385C45.2666 63.472 42.505 60.2025 41.7988 58.5263C40.6084 55.7012 40.5366 51.5513 41.6284 48.6932C42.5499 46.2814 46.1756 42.6528 48.4158 41.9002C51.1854 40.9697 54.842 41.1899 57.3652 42.4388Z" fill="white" />
   </symbol>

   <symbol id="footerSocialTikTok" viewBox="0 0 124 124">
      <path d="M62 124C96.2417 124 124 96.2417 124 62C124 27.7583 96.2417 0 62 0C27.7583 0 0 27.7583 0 62C0 96.2417 27.7583 124 62 124Z" fill="currentColor" />
      <path fill-rule="evenodd" clip-rule="evenodd" d="M63.0533 37.4456C62.6043 37.883 62.5961 38.1887 62.5947 54.6493C62.594 65.1888 62.5083 71.7064 62.3638 72.2133C61.8412 74.0459 59.9782 75.7665 58.0892 76.1611C54.0533 77.0043 50.5759 73.7123 51.2001 69.6394C51.5237 67.5274 53.7248 65.4443 55.9154 65.1769C56.5093 65.1045 57.2522 64.9196 57.5666 64.7661L58.1381 64.4871L58.2001 59.8413C58.2739 54.3016 58.3007 54.3709 56.0818 54.3709C54.1434 54.3709 51.4287 55.0784 49.1144 56.1865C47.5393 56.9407 46.7922 57.4919 45.1137 59.1385C42.8555 61.3537 41.8204 62.8774 40.9862 65.214C39.4107 69.6273 39.7173 73.7747 41.946 78.1993C42.8342 79.9624 43.3381 80.631 44.9738 82.2162C47.152 84.327 49.2813 85.5607 52.3085 86.4658C54.5284 87.1292 58.7145 87.1837 60.9958 86.5789C66.9938 84.9882 71.6968 80.3404 73.1071 74.6092C73.5229 72.9195 73.5664 71.9835 73.5677 64.6709C73.5687 60.2034 73.6587 56.5978 73.7697 56.5978C73.8796 56.5978 74.564 56.854 75.2906 57.1669C76.9498 57.8818 79.7883 58.5378 82.0657 58.733C83.743 58.8765 83.8433 58.8583 84.409 58.3074L85 57.7317V53.4035C85 48.1034 85.0408 48.1905 82.42 47.904C79.9908 47.6388 78.1384 46.7462 76.4611 45.0332C74.8621 43.4001 74.0488 41.7393 73.7449 39.4864C73.4016 36.9398 73.5394 37.0001 68.0574 37.0001C63.8152 37.0001 63.4799 37.03 63.0533 37.4456ZM71.0133 41.2103C71.9569 45.661 76.1479 49.7387 80.6692 50.6052L82.0279 50.8656V55.7071H81.2759C79.5389 55.7071 76.0779 54.5314 74.0426 53.25C72.392 52.2109 71.7248 52.144 71.0714 52.9534C70.6089 53.526 70.5974 53.7674 70.5974 62.964C70.5974 68.8955 70.505 72.825 70.3482 73.568C70.2111 74.217 69.6852 75.5921 69.1796 76.6239C67.4202 80.213 63.7114 83.0549 59.7089 83.8811C56.5639 84.53 53.6366 84.1357 50.5305 82.6443C45.7401 80.3439 42.6324 75.075 43.0199 69.9099C43.4863 63.694 48.2287 58.49 54.4232 57.3972L55.2805 57.2458V59.8171C55.2805 62.1171 55.2385 62.3882 54.8804 62.3884C54.0709 62.3886 51.6978 63.6865 50.6623 64.6951C47.1502 68.1164 47.291 73.7395 50.9695 76.9613C55.4067 80.8476 62.1635 79.5093 64.7281 74.2361L65.4537 72.7438L65.5794 39.8952H70.7346L71.0133 41.2103Z" fill="white" />
   </symbol>

   <symbol id="footerSocialTelegram" viewBox="0 0 124 124">
      <path d="M62 124C96.2417 124 124 96.2417 124 62C124 27.7583 96.2417 0 62 0C27.7583 0 0 27.7583 0 62C0 96.2417 27.7583 124 62 124Z" fill="currentColor" />
      <path fill-rule="evenodd" clip-rule="evenodd" d="M67.3067 47.0742C57.5727 50.9969 46.9028 55.2926 43.5957 56.6205C37.0539 59.2476 36.6755 59.497 37.1367 60.8793C37.327 61.4501 38.213 61.9772 43.8227 64.8584C47.3793 66.6851 50.5361 68.1822 50.8379 68.1852C51.266 68.1896 58.707 63.9764 61.4641 62.1684C62.5057 61.4853 61.9026 62.1327 59.1953 64.6036C57.6665 65.9988 56.1859 67.3718 55.9052 67.6549C55.3954 68.1686 55.3945 68.1826 55.3945 76.118C55.3945 83.7549 55.4122 84.0843 55.8483 84.533C56.1237 84.8165 56.6046 84.9999 57.0722 84.9999C57.8035 84.9999 57.983 84.8059 60.6406 81.1478C62.1797 79.0292 63.5052 77.2957 63.5865 77.2957C63.6675 77.2957 66.6821 79.029 70.2852 81.1474C77.2501 85.242 77.9705 85.5295 78.6285 84.4747C78.8088 84.1856 80.8203 74.3483 83.0984 62.6134C86.9303 42.8762 87.2157 41.2319 86.9097 40.6681C86.6661 40.2197 86.3712 40.0434 85.792 40.0007C85.2102 39.9578 80.3872 41.8032 67.3067 47.0742ZM83.4199 44.6697C83.3546 44.9584 81.7652 53.1267 79.8876 62.8212C78.0102 72.5157 76.4342 80.571 76.3852 80.7218C76.3323 80.8857 73.7566 79.501 69.9864 77.282C66.4109 75.1776 63.4247 73.5665 63.0957 73.5641C62.3176 73.559 62.0819 73.7894 60.2907 76.3035C59.4447 77.4914 58.7116 78.463 58.6617 78.463C58.612 78.463 58.571 76.4397 58.571 73.9669V69.4706L67.6536 61.1849C73.4288 55.9161 76.7877 52.6925 76.8777 52.3316C77.1058 51.4202 76.5066 50.5752 75.5815 50.5036C74.9096 50.4516 73.0341 51.4988 62.7746 57.6554L50.7547 64.8684L46.6187 62.7444C44.3438 61.5762 42.5205 60.5814 42.5666 60.5337C42.7226 60.3733 82.9602 44.1826 83.2506 44.1635C83.4358 44.1511 83.4961 44.3321 83.4199 44.6697Z" fill="white" />
   </symbol>

   <symbol id="footerSocialWhatsApp" viewBox="0 0 124 124">
      <path d="M62 124C96.2417 124 124 96.2417 124 62C124 27.7583 96.2417 0 62 0C27.7583 0 0 27.7583 0 62C0 96.2417 27.7583 124 62 124Z" fill="currentColor" />
      <path fill-rule="evenodd" clip-rule="evenodd" d="M56.9978 37.3177C50.037 38.9405 44.7418 42.5852 41.036 48.3034C38.2632 52.5816 37.119 56.5717 37.1255 61.9399C37.1299 65.713 37.7243 68.6504 39.1565 71.9787L40.2592 74.5416L38.5649 80.7012C37.6331 84.0886 36.9314 86.9209 37.0052 86.9945C37.079 87.0684 40.0377 86.369 43.5802 85.4403L50.0209 83.7522L51.8814 84.6112C55.3034 86.1906 57.3515 86.5754 62.2691 86.5614C66.5185 86.5494 66.9272 86.4934 69.7111 85.5397C73.4761 84.25 76.3342 82.5541 79.0449 80.0016C89.6392 70.0256 89.6534 53.6121 79.0762 43.6522C76.3205 41.0571 73.4671 39.3662 69.7111 38.1023C67.1033 37.2249 66.3026 37.1001 62.7343 37.0156C60.2049 36.9559 58.0679 37.0682 56.9978 37.3177ZM67.3802 41.7327C76.3798 44.0552 82.7345 52.3653 82.7345 61.8121C82.7345 75.2906 70.1573 85.1896 57.0334 82.0399C56.2464 81.8511 54.4461 81.164 53.033 80.5133L50.4636 79.33L46.8891 80.2629C44.9234 80.7761 43.2003 81.1525 43.0605 81.0993C42.9203 81.0463 43.2685 79.3526 43.8341 77.3361L44.8621 73.6694L43.9759 72.2289C42.4943 69.8216 41.4453 66.1971 41.2744 62.896C41.0738 59.022 41.6945 56.131 43.5191 52.4417C46.4146 46.5874 52.3329 42.2581 58.849 41.2276C61.0344 40.8822 64.9923 41.1165 67.3802 41.7327ZM52.1914 50.5571C51.2494 51.0282 49.9021 52.9451 49.5216 54.3555C48.5691 57.8863 51.3803 63.3875 56.5398 68.0886C61.4642 72.5759 68.1738 74.84 71.5105 73.141C73.7329 72.0091 74.6724 70.5788 74.6724 68.327C74.6724 67.7699 74.1195 67.3807 71.6491 66.1983C69.9862 65.4025 68.5421 64.752 68.4394 64.752C68.3371 64.7522 67.641 65.5186 66.8924 66.455C66.144 67.3913 65.3516 68.1573 65.1319 68.1573C63.9786 68.1573 60.6995 66.043 58.7032 64.0115C56.2743 61.5406 55.4712 60.2849 55.9268 59.6707C56.0895 59.4513 56.6135 58.7112 57.0916 58.026L57.9605 56.7797L56.6911 53.7346C55.9928 52.0599 55.2529 50.5827 55.0468 50.4519C54.5298 50.1241 52.9403 50.1825 52.1914 50.5571Z" fill="white" />
   </symbol>

   <symbol id="footerSocialTaplink" viewBox="0 0 124 124">
      <path d="M62 124C96.2417 124 124 96.2417 124 62C124 27.7583 96.2417 0 62 0C27.7583 0 0 27.7583 0 62C0 96.2417 27.7583 124 62 124Z" fill="currentColor" />
      <path fill-rule="evenodd" clip-rule="evenodd" d="M58.8661 38.3457C53.81 39.2655 49.6143 41.3355 46.0591 44.6647C34.123 55.8412 35.6614 74.8463 49.2402 83.9582C53.5437 86.8458 57.4722 88.0001 62.9982 88.0001C68.5241 88.0001 72.4525 86.8458 76.7561 83.9582C88.5349 76.0542 91.5308 60.3881 83.493 48.7302C81.7094 46.1433 78.4578 43.0701 75.879 41.5341C70.8867 38.5603 64.3845 37.342 58.8661 38.3457ZM68.4768 41.74C76.5831 44.1077 81.857 49.402 84.292 57.6165C85.753 62.5451 85.2747 67.1179 82.7327 72.5226C80.5794 77.1011 77.6194 80.1855 73.1243 82.5357C67.8596 85.2881 62.5199 85.9283 57.5056 84.4086C49.376 81.945 44.168 76.7186 41.7032 68.5514C40.632 65.0023 40.6274 61.1355 41.6902 57.6165C43.6942 50.9819 47.2703 46.4961 52.8582 43.6081C58.418 40.7343 63.112 40.1732 68.4768 41.74ZM48.9712 54.0813C48.7853 54.2676 48.6332 54.6235 48.6332 54.872C48.6332 55.9839 48.8569 56.0016 62.7914 56.0016C71.5461 56.0016 76.4645 55.8992 76.8183 55.7093C77.4323 55.3798 77.5326 54.5902 77.0251 54.0813C76.5381 53.593 49.4582 53.593 48.9712 54.0813ZM49.1262 62.2373C48.4704 62.6202 48.4992 63.535 49.178 63.8992C49.5314 64.0888 54.3856 64.1915 62.9982 64.1915C71.6106 64.1915 76.4648 64.0888 76.8183 63.8992C77.118 63.7383 77.3631 63.3615 77.3631 63.0619C77.3631 62.7623 77.118 62.3855 76.8183 62.2245C76.0773 61.827 49.8081 61.8391 49.1262 62.2373ZM48.9712 70.4611C48.7853 70.6474 48.6332 71.0033 48.6332 71.2517C48.6332 72.3645 48.8481 72.3814 62.9982 72.3814C73.2696 72.3814 76.7715 72.2967 77.0251 72.0425C77.5326 71.5336 77.4323 70.744 76.8183 70.4144C75.9911 69.9707 49.416 70.0151 48.9712 70.4611Z" fill="white" />
   </symbol>
</svg>
