<svg display="none" xmlns="http://www.w3.org/2000/svg" xmlns:xlink="http://www.w3.org/1999/xlink">
   <symbol id="logo" viewBox="0 0 190 53">
      <path
         d="M99.3915 5.56417C98.2651 8.97194 97.4325 12.9975 98.3352 14.3401C98.4716 14.5431 98.6837 14.7499 99.2293 14.7499C100.035 14.7499 100.337 14.4435 100.509 14.175C101.477 12.6798 100.541 8.745 99.3915 5.56417ZM99.2293 16.7166C98.1384 16.7166 97.2644 16.2741 96.7026 15.437C94.5909 12.2927 97.7792 4.0702 98.4399 2.45394L99.3081 0.328354L100.247 2.42243C100.676 3.3768 104.364 11.8414 102.16 15.2441C101.726 15.9161 100.865 16.7166 99.2293 16.7166Z"
         fill="#F2AA17"></path>
      <path
         d="M18.426 50.2622C18.8559 50.2622 19.0722 50.4652 19.0722 50.8737C19.0722 51.2809 18.8559 51.4864 18.426 51.4864H0.635489C0.36778 51.4864 0.197384 51.4297 0.127107 51.3137C0.0432884 51.2305 0 51.0867 0 50.8838V20.1383C0 19.7374 0.213635 19.5382 0.635489 19.5382C1.03026 19.5382 1.22769 19.7374 1.22769 20.1383V50.2622H18.426Z"
         fill="#2C2C2C"></path>
      <path
         d="M24.4265 38.961C24.4265 40.6075 24.7348 42.1469 25.3514 43.5803C25.9679 45.0138 26.8088 46.2619 27.877 47.3285C28.9451 48.3963 30.1945 49.2372 31.6276 49.8537C33.0608 50.4702 34.6021 50.7791 36.2517 50.7791C37.8984 50.7791 39.4398 50.4702 40.873 49.8537C42.3062 49.2372 43.5583 48.3963 44.6264 47.3285C45.6946 46.2619 46.5355 45.0138 47.1521 43.5803C47.7686 42.1469 48.0768 40.6075 48.0768 38.961V20.1383C48.0768 19.7374 48.2905 19.5382 48.7205 19.5382C49.1234 19.5382 49.3235 19.7374 49.3235 20.1383V39.1451C49.31 40.3352 49.1449 41.4787 48.8286 42.5743C48.515 43.6724 48.0742 44.6973 47.5062 45.6492C46.9412 46.6036 46.2596 47.471 45.4647 48.2501C44.6697 49.0317 43.7909 49.7025 42.8308 50.2622C41.8709 50.822 40.8352 51.2519 39.7237 51.552C38.6124 51.852 37.4551 52.0033 36.2517 52.0033C34.4453 52.0033 32.7499 51.6629 31.1653 50.9808C29.5833 50.3001 28.2015 49.3721 27.0279 48.1959C25.8516 47.0221 24.9241 45.6429 24.2426 44.0582C23.5611 42.4734 23.2231 40.779 23.2231 38.9724V20.1383C23.2231 19.7374 23.4232 19.5382 23.8235 19.5382C24.2237 19.5382 24.4265 19.7374 24.4265 20.1383V38.961Z"
         fill="#2C2C2C"></path>
      <path
         d="M72.2435 49.5512L86.1753 18.9343C86.2618 18.7338 86.4051 18.6342 86.6052 18.6342C86.9784 18.6342 87.2082 18.8775 87.2948 19.3642L89.8745 50.7564C89.8745 50.9266 89.8313 51.1006 89.7447 51.2708C89.6582 51.4435 89.5148 51.5305 89.3148 51.5305C89.1147 51.5305 88.9551 51.4675 88.8415 51.3465C88.728 51.2242 88.6712 51.0565 88.6712 50.8409L86.2618 21.6877L72.8033 51.3565C72.6735 51.673 72.4734 51.8306 72.2003 51.8306C71.9569 51.8306 71.7703 51.673 71.6405 51.3565L58.1821 21.6877L55.7727 50.8409C55.7727 51.0565 55.7158 51.2242 55.6023 51.3465C55.486 51.4675 55.3292 51.5305 55.1291 51.5305C54.929 51.5305 54.7857 51.4435 54.6992 51.2708C54.6126 51.1006 54.5693 50.9266 54.5693 50.7564L57.149 19.3642C57.2357 18.8775 57.4655 18.6342 57.8387 18.6342C58.0387 18.6342 58.1821 18.7338 58.2686 18.9343L72.2003 49.5512L72.2219 49.6155L72.2435 49.5512Z"
         fill="#2C2C2C"></path>
      <path
         d="M94.9692 20.1383C94.9692 19.7374 95.1856 19.5382 95.6155 19.5382C96.0156 19.5382 96.2159 19.7374 96.2159 20.1383V50.8838C96.2159 51.2872 96.0156 51.4864 95.6155 51.4864C95.1856 51.4864 94.9692 51.2872 94.9692 50.8838V20.1383Z"
         fill="#2C2C2C"></path>
      <path
         d="M102.987 20.1383C102.987 19.7374 103.203 19.5382 103.633 19.5382C104.033 19.5382 104.233 19.7374 104.233 20.1383V50.8838C104.233 51.2872 104.033 51.4864 103.633 51.4864C103.203 51.4864 102.987 51.2872 102.987 50.8838V20.1383Z"
         fill="#2C2C2C"></path>
      <path
         d="M132.487 19.5155C132.917 19.5155 133.132 19.7184 133.132 20.1269C133.132 20.5354 132.917 20.7409 132.487 20.7409H112.276V38.4012H128.831C129.291 38.4012 129.52 38.6181 129.52 39.0455C129.52 39.4477 129.291 39.6481 128.831 39.6481H112.276V50.2622H132.96C133.39 50.2622 133.606 50.4652 133.606 50.8737C133.606 51.2809 133.39 51.4864 132.96 51.4864H111.459C111.302 51.4864 111.192 51.4221 111.127 51.2922C111.062 51.1649 111.029 51.0275 111.029 50.8838V20.1194C111.029 19.9454 111.054 19.8155 111.105 19.7298C111.154 19.6453 111.213 19.5835 111.275 19.5482C111.34 19.5129 111.413 19.4966 111.492 19.5054C111.57 19.5129 111.632 19.5155 111.676 19.5155H132.487Z"
         fill="#2C2C2C"></path>
      <path
         d="M149.493 41.5543C150.754 41.5543 151.9 41.4119 152.932 41.1244C153.966 40.8382 154.885 40.4462 155.696 39.9507C156.505 39.4565 157.205 38.8715 157.792 38.1983C158.378 37.525 158.863 36.8064 159.243 36.0386C159.623 35.2734 159.906 34.4728 160.093 33.642C160.28 32.8099 160.372 31.9929 160.372 31.1898C160.372 30.3729 160.28 29.5484 160.093 28.7176C159.906 27.8855 159.623 27.0849 159.243 26.3083C158.863 25.5355 158.378 24.808 157.792 24.126C157.205 23.4477 156.505 22.8551 155.696 22.3521C154.885 21.8529 153.966 21.457 152.932 21.1708C151.9 20.8846 150.754 20.7409 149.493 20.7409H140.074V41.5543H149.493ZM161.619 31.1898C161.619 32.1493 161.501 33.115 161.264 34.0832C161.028 35.0489 160.667 35.9781 160.18 36.8657C159.69 37.7557 159.082 38.5828 158.352 39.3506C157.618 40.1158 156.758 40.7651 155.771 41.2946L160.157 50.5408C160.285 50.7564 160.304 50.9594 160.212 51.1548C160.117 51.3465 159.928 51.4574 159.642 51.4864C159.425 51.4864 159.236 51.4196 159.071 51.2809C158.905 51.146 158.765 50.914 158.652 50.5837L154.526 41.8985C153.062 42.4986 151.385 42.8012 149.493 42.8012H140.074V50.8838C140.074 51.2872 139.875 51.4864 139.474 51.4864C139.072 51.4864 138.871 51.2872 138.871 50.8838V20.1383C138.871 19.8949 138.928 19.7374 139.044 19.6642L139.301 19.5382H149.493C151.569 19.5382 153.371 19.8836 154.89 20.5783C156.407 21.2767 157.667 22.1819 158.662 23.2989C159.658 24.4185 160.401 25.6678 160.889 27.0521C161.375 28.4339 161.619 29.8131 161.619 31.1898Z"
         fill="#2C2C2C"></path>
      <path
         d="M188.881 19.5155C189.312 19.5155 189.527 19.7184 189.527 20.1269C189.527 20.5354 189.312 20.7409 188.881 20.7409H168.671V38.4012H185.226C185.685 38.4012 185.915 38.6181 185.915 39.0455C185.915 39.4477 185.685 39.6481 185.226 39.6481H168.671V50.2622H189.355C189.785 50.2622 190 50.4652 190 50.8737C190 51.2809 189.785 51.4864 189.355 51.4864H167.854C167.697 51.4864 167.586 51.4221 167.521 51.2922C167.457 51.1649 167.424 51.0275 167.424 50.8838V20.1194C167.424 19.9454 167.448 19.8155 167.5 19.7298C167.548 19.6453 167.608 19.5835 167.67 19.5482C167.734 19.5129 167.808 19.4966 167.887 19.5054C167.965 19.5129 168.027 19.5155 168.07 19.5155H188.881Z"
         fill="#2C2C2C"></path>
   </symbol>

   <symbol id="catalog" viewBox="0 0 45 45" fill="#EB4A00" stroke="none">
      <path d="M39.5833 0H30.4167C27.4251 0 25 2.42512 25 5.41666V14.5833C25 17.5749 27.4251 20 30.4167 20H39.5833C42.5749 20 45 17.5749 45 14.5833V5.41666C45 2.42512 42.5749 0 39.5833 0Z" />
      <path d="M14.5833 0H5.41666C2.42512 0 0 2.42512 0 5.41666V14.5833C0 17.5749 2.42512 20 5.41666 20H14.5833C17.5749 20 20 17.5749 20 14.5833V5.41666C20 2.42512 17.5749 0 14.5833 0Z" />
      <path d="M14.5833 25H5.41666C2.42512 25 0 27.4251 0 30.4167V39.5833C0 42.5749 2.42512 45 5.41666 45H14.5833C17.5749 45 20 42.5749 20 39.5833V30.4167C20 27.4251 17.5749 25 14.5833 25Z" />
      <path d="M39.5833 25.0002H30.4167C27.4251 25.0002 25 27.4254 25 30.4169V39.5836C25 42.5751 27.4251 45.0002 30.4167 45.0002H39.5833C42.5749 45.0002 45 42.5751 45 39.5836V30.4169C45 27.4254 42.5749 25.0002 39.5833 25.0002Z" />
   </symbol>

   <symbol id="search" viewBox="0 0 45 45">
      <path d="M20.0001 36C28.8366 36 36 28.8366 36 20.0001C36 11.1634 28.8366 4 20.0001 4C11.1635 4 4 11.1634 4 20.0001C4 28.8366 11.1635 36 20.0001 36Z" stroke-width="3" stroke-linecap="round" stroke-linejoin="round" />
      <path d="M32 32L42 42" stroke-width="3" stroke-miterlimit="10" stroke-linecap="round" />
   </symbol>

   <symbol id="favorite" viewBox="0 0 45 45">
      <path
      d="M38.6123 4.86484C36.5679 3.37817 34.146 2.7514 31.7515 3.08937C29.3569 3.42732 27.1348 4.70949 25.4568 6.72154L23.0057 9.52333H22.9482L20.5257 6.72154C18.8477 4.70949 16.6255 3.42732 14.231 3.08937C11.8364 2.7514 9.41456 3.37817 7.37021 4.86484C6.17545 5.76327 5.16827 6.9597 4.4219 8.36709C3.67552 9.77448 3.20875 11.3574 3.05559 13.0007C2.90243 14.6439 3.06671 16.3061 3.53649 17.8664C4.00626 19.4266 4.76971 20.8456 5.77126 22.0201L22.8811 43L40.2399 22.0201C41.2401 20.8432 42.0017 19.4224 42.4691 17.8607C42.9366 16.299 43.0983 14.636 42.9425 12.9926C42.7865 11.3492 42.3169 9.76688 41.5679 8.36085C40.8187 6.95483 39.809 5.7605 38.6123 4.86484Z" stroke-width="3" />
   </symbol>

   <symbol id="backet" viewBox="0 0 45 45">
      <path
      d="M15.5 17.3752V8.62095C15.5 4.96429 18.6339 2 22.4999 2C26.3659 2 29.5 4.96429 29.5 8.62095V17.3752M9.04515 38.4851L5.12807 19.266C4.39419 15.6653 6.90718 12.2495 10.2902 12.2495H34.7098C38.0927 12.2495 40.6058 15.6653 39.872 19.266L35.9547 38.4851C35.4171 41.1231 33.2713 43 30.7927 43H14.2073C11.7288 43 9.5828 41.1231 9.04515 38.4851Z" stroke-width="3" />
   </symbol>


   <symbol id="homeHeroIcon" viewBox="0 0 210 60">
   </symbol>

   <symbol id="homeProductIcon-1" viewBox="0 0 80 80">
      <path
      fill-rule="evenodd"
      clip-rule="evenodd"
      d="M41.0453 6.74312C30.7685 12.3355 26.2048 20.5305 28.6444 29.0085C29.7632 32.8964 31.8601 35.9071 37.1161 41.1727C40.6519 44.7142 42.6037 47.1295 43.9255 49.5987C45.6512 52.8223 45.7783 53.3498 45.7783 57.2898C45.7783 61.2376 45.6532 61.754 43.9004 65.038C42.7288 67.233 40.7494 69.8286 38.6399 71.937C34.7544 75.8198 35.4708 75.9969 41.1171 72.5492C45.2111 70.0494 48.0375 67.1144 50.1682 63.1513C51.5316 60.6152 51.7964 59.5516 51.9677 55.9306C52.3068 48.7559 50.0416 44.2052 42.0034 35.9113C37.5311 31.2973 35.6592 28.2536 35.0307 24.5759C34.1299 19.3028 36.1335 15.1584 43.7647 6.5107C44.4977 5.67958 44.9066 5 44.673 5C44.4394 5 42.8067 5.78463 41.0453 6.74312Z"
      fill="#EB4A00" />
   </symbol>

   <symbol id="homeProductIcon-2" viewBox="0 0 80 80">
       <path
         fill-rule="evenodd"
         clip-rule="evenodd"
         d="M68.7635 8.7996C53.3299 12.2931 42.8241 19.0327 38.068 28.4901L36.5692 31.4702L34.0031 29.9226C29.1451 26.9924 23.0462 25.9051 13.8275 26.3249C7.42699 26.6167 5.57096 27.0254 5.10339 28.2454C4.64339 29.4467 5.71911 32.7397 8.31497 38.078C14.4254 50.6437 22.8785 54.561 33.2433 49.6304L36.4646 48.0985L36.7569 50.0511C36.9179 51.1254 37.551 54.0637 38.1641 56.5808C39.1094 60.4629 39.2576 61.9886 39.1392 66.6326C39.0249 71.121 39.1201 72.1836 39.6668 72.5298C41.4094 73.6335 42.7685 72.7645 43.2561 70.2354C44.0151 66.2997 43.7143 61.4904 42.3361 55.5159C41.0762 50.0551 40.7261 47.5669 41.2173 47.5669C41.336 47.5669 43.1876 48.0971 45.3323 48.7451C50.6313 50.3456 56.9423 50.441 60.6443 48.9763C67.5962 46.2248 71.7461 40.2306 73.9587 29.7431C74.7514 25.9867 74.9548 23.498 74.9902 17.1202C75.0318 9.74292 74.973 9.13112 74.1709 8.54248C73.1371 7.78408 73.2784 7.7774 68.7635 8.7996ZM70.6808 19.6057C70.2913 29.7444 68.0073 37.5116 64.1078 41.96C60.3862 46.2056 54.1641 47.0888 46.2452 44.495C43.8687 43.7165 41.8076 42.8904 41.6648 42.6591C41.268 42.0157 42.2471 40.4783 44.7256 37.8533C46.4913 35.9836 48.2775 34.8037 52.998 32.3894C60.2959 28.6571 65.028 25.292 65.018 23.8412C65.0141 23.2886 64.8646 22.6211 64.6845 22.3582C63.8297 21.1078 62.7461 21.4322 58.6213 24.1754C56.2751 25.7358 52.248 28.0231 49.6731 29.2582C46.7097 30.6793 44.1744 32.2683 42.7668 33.5872C41.5438 34.7328 40.4512 35.579 40.3395 35.4667C40.2274 35.3545 40.3502 34.4722 40.6118 33.5057C42.2867 27.323 47.5603 21.7562 55.3377 17.9619C59.6018 15.8819 68.2372 12.928 70.3196 12.8376C70.8381 12.8149 70.8985 13.9449 70.6808 19.6057ZM26.2271 31.3463C29.5023 32.0722 31.397 32.9589 33.1445 34.584C34.4947 35.8397 35.8761 38.1448 35.5024 38.5191C35.3778 38.6438 34.3119 38.4291 33.1338 38.0414C29.8444 36.9599 24.7185 35.9814 22.342 35.9814C19.8894 35.9814 18.9605 36.7376 19.3764 38.3965C19.6949 39.6692 19.8191 39.7146 25.6523 40.6878C30.2973 41.4631 33.9524 42.6502 34.226 43.4723C34.4008 43.9977 31.5202 45.9614 29.0703 46.9867C27.2539 47.7469 23.5058 47.8289 21.7178 47.1476C18.4239 45.8928 13.9854 40.6543 11.446 35.0251C9.59978 30.9315 9.6149 30.8936 13.1966 30.6128C17.382 30.2849 22.8175 30.591 26.2271 31.3463Z"
         fill="#EB4A00" />
   </symbol>

   <symbol id="homeProductIcon-3" viewBox="0 0 80 80">
      <path
      fill-rule="evenodd"
      clip-rule="evenodd"
      d="M38.1319 8.06608C35.017 8.40975 33.4565 8.74252 31.3085 9.52132C24.0305 12.1604 18.3464 17.9708 16.1057 25.0622C13.7027 32.6672 15.268 40.9073 20.2989 47.1362C21.5092 48.6344 23.9325 50.8738 25.5601 51.9977C28.1986 53.8195 31.7905 55.3073 35.2832 56.0252C36.545 56.2845 37.1746 56.3258 39.9385 56.3301C43.5201 56.3359 44.9184 56.1416 47.7763 55.2415C54.6028 53.0915 60.3301 47.9524 63.0759 41.5128C65.9261 34.8288 65.599 27.4612 62.1665 21.0286C58.9476 14.9963 52.9419 10.4122 46.0288 8.71091C43.8119 8.16534 40.0306 7.85652 38.1319 8.06608ZM43.0836 13.9605C45.0398 14.2907 46.6671 14.8026 48.4326 15.6434C53.9243 18.2588 57.6383 23.0314 58.8534 29.035C59.1783 30.6402 59.1791 33.6867 58.855 35.3961C58.3546 38.0356 57.1459 40.8383 55.5964 42.9517C54.6816 44.1994 52.7778 46.0708 51.4168 47.06C49.2184 48.6581 45.9615 50.0232 43.2042 50.5025C41.6382 50.7748 37.8616 50.7344 36.3949 50.4297C30.3418 49.1725 25.5744 45.655 22.8766 40.4557C19.1184 33.2128 20.7317 24.4011 26.8437 18.7863C29.6921 16.1698 33.3198 14.4914 37.5066 13.8531C38.4369 13.7114 42.0158 13.7802 43.0836 13.9605Z"
      fill="#EB4A00" />
      <path
         fill-rule="evenodd"
         clip-rule="evenodd"
         d="M22.9055 49.55C22.8752 50.4232 22.9197 72.8984 22.9519 72.9296C22.9769 72.9538 23.3683 72.7118 23.8216 72.3917C24.2749 72.0715 28.0776 69.3803 32.2722 66.4111L39.8983 61.0126L40.3322 61.3094C40.5707 61.4728 42.7983 63.0574 45.2823 64.831C47.7664 66.6046 51.3621 69.1682 53.2729 70.5279L56.7471 73L56.7827 61.2649C56.8022 54.8106 56.791 49.5036 56.758 49.4716C56.725 49.4396 55.771 49.7269 54.638 50.1101C53.505 50.4933 52.2341 50.91 51.8138 51.0362L51.0495 51.2655L51.0131 56.4722C50.9931 59.3358 50.9305 61.6779 50.8741 61.6768C50.8177 61.6757 48.3952 59.9751 45.4908 57.8977C42.5864 55.8202 40.1327 54.0899 40.038 54.0525C39.9435 54.015 38.1672 55.186 36.091 56.6547C34.0145 58.1232 31.528 59.8788 30.5652 60.556L28.8148 61.787L28.7421 51.3439L25.8254 50.4017C24.2213 49.8834 22.9073 49.5002 22.9055 49.55Z"
         fill="#EB4A00" />
   </symbol>

   <symbol id="homeProductCardLink" viewBox="0 0 100 100">
         <path d="M100 50C100 22.3858 77.6142 0 50 0C22.3858 0 0 22.3858 0 50C0 77.6142 22.3858 100 50 100C77.6142 100 100 77.6142 100 50Z" fill="white" fill-opacity="0.25" />
         <path d="M59.103 35.5001H63.7322L54.3955 44.8368C53.9073 45.3247 53.9073 46.1162 54.3955 46.6045C54.8838 47.0927 55.6753 47.0927 56.1632 46.6045L65.4999 37.2678V41.897C65.4999 42.5873 66.0597 43.147 66.75 43.147C67.4403 43.147 68 42.5873 68 41.897V34.25C68 33.5597 67.4403 33 66.75 33H59.103C58.4127 33 57.853 33.5597 57.853 34.25C57.853 34.9403 58.4127 35.5001 59.103 35.5001ZM66.75 48.2942C66.0597 48.2942 65.4999 48.8536 65.4999 49.5442V62.9263C65.4999 64.3478 64.3478 65.4999 62.9263 65.4999H38.0737C36.6522 65.4999 35.5001 64.3478 35.5001 62.9263V38.0737C35.5001 36.6522 36.6522 35.5001 38.0737 35.5001H51.4558C52.1464 35.5001 52.7058 34.9403 52.7058 34.25C52.7058 33.5597 52.1464 33 51.4558 33H38.0737C35.2715 33 33 35.2715 33 38.0737V62.9263C33 65.7285 35.2715 68 38.0737 68H62.9263C65.7285 68 68 65.7285 68 62.9263V49.5442C68 48.8536 67.4403 48.2942 66.75 48.2942Z" fill="white" />
   </symbol>

   <symbol id="homeProductCardIcon-1" viewBox="0 0 110 45">
               <path d="M6.93694 11.6579C9.74908 11.1923 11.8919 8.77793 11.8919 5.86957C11.8919 2.62789 9.2298 0 5.94595 0C2.66209 0 0 2.62789 0 5.86957C0 8.77793 2.14281 11.1923 4.95495 11.6579V33.2609H6.93694V11.6579Z" fill="white" />
               <path d="M103.063 11.7391H5.94595V33.2609H103.063V11.7391Z" fill="white" fill-opacity="0.2" />
               <path
                  d="M10.893 27.1223H10.8593V28.3696H9.32622V15.797H10.9098V21.6675H10.9604C11.2524 21.2573 11.6454 20.9247 12.1396 20.6697C12.6338 20.4036 13.1898 20.2705 13.8075 20.2705C14.9756 20.2705 15.9302 20.6697 16.6714 21.4679C17.4239 22.2551 17.8002 23.2363 17.8002 24.4115C17.8002 25.5979 17.4295 26.5901 16.6883 27.3884C15.947 28.1866 14.9756 28.5858 13.7738 28.5858C13.201 28.5858 12.6507 28.4583 12.1228 28.2033C11.6062 27.9482 11.1962 27.5879 10.893 27.1223ZM15.4585 26.4404C15.9302 25.875 16.166 25.1987 16.166 24.4115C16.166 23.6243 15.9302 22.9536 15.4585 22.3992C14.9868 21.8449 14.3354 21.5677 13.5042 21.5677C12.7181 21.5677 12.0723 21.8504 11.5668 22.4159C11.0614 22.9813 10.8087 23.6521 10.8087 24.4282C10.8087 25.2042 11.0614 25.875 11.5668 26.4404C12.0723 26.9948 12.7181 27.272 13.5042 27.272C14.3354 27.272 14.9868 26.9948 15.4585 26.4404ZM20.1544 20.4867L22.6309 26.6733H22.6646L24.8715 20.4867H26.5562L22.6814 30.2322C22.4007 30.9529 22.0525 31.485 21.6369 31.8287C21.2326 32.1835 20.6598 32.3609 19.9185 32.3609C19.5479 32.3609 19.1998 32.322 18.874 32.2445L19.0256 30.8641C19.2952 30.9529 19.5592 30.9972 19.8174 30.9972C20.1994 30.9972 20.497 30.8918 20.7103 30.6812C20.9238 30.4816 21.1203 30.149 21.3 29.6834L21.8054 28.3696L18.3855 20.4867H20.1544ZM33.2428 16.5952V26.9061H38.5664V28.3696H31.575V16.5952H33.2428ZM47.3492 27.3218C46.5517 28.2199 45.4061 28.6689 43.9124 28.6689C42.4187 28.6689 41.2731 28.2199 40.4756 27.3218C39.6782 26.4128 39.2795 25.3096 39.2795 24.0124V16.5952H40.9474V23.9126C40.9474 24.8329 41.1832 25.6089 41.6549 26.2409C42.1378 26.8728 42.8904 27.1888 43.9124 27.1888C44.9344 27.1888 45.6813 26.8728 46.153 26.2409C46.6359 25.6089 46.8774 24.8329 46.8774 23.9126V16.5952H48.5453V24.0124C48.5453 25.3096 48.1466 26.4128 47.3492 27.3218ZM53.5473 16.5952L57.1188 25.6422H57.1525L60.6735 16.5952H63.2679V28.3696H61.6001V18.5243H61.5664L57.6074 28.3696H56.546L52.6039 18.5243H52.5702V28.3696H50.9529V16.5952H53.5473ZM67.4346 16.5952V28.3696H65.7667V16.5952H67.4346ZM71.6039 16.5952V28.3696H69.936V16.5952H71.6039ZM75.7732 22.9813V26.9061H82.0066V28.3696H74.1054V16.5952H81.7539V18.0421H75.7732V21.5677H81.4001V22.9813H75.7732ZM85.4868 23.131V28.3696H83.819V16.5952H87.6432C88.9012 16.5952 89.9232 16.8557 90.7094 17.3768C91.4956 17.898 91.8886 18.7239 91.8886 19.8548C91.8886 20.6974 91.6248 21.3904 91.0969 21.9336C90.569 22.4768 89.867 22.8206 88.991 22.9647L92.3267 28.3696H90.305L87.2726 23.131H85.4868ZM85.4868 17.9922V21.7507H87.4074C89.2718 21.7507 90.204 21.1187 90.204 19.8548C90.204 18.6131 89.3111 17.9922 87.5253 17.9922H85.4868ZM95.4308 22.9813V26.9061H101.664V28.3696H93.763V16.5952H101.411V18.0421H95.4308V21.5677H101.057V22.9813H95.4308Z"
                  fill="white" />
               <path
                  d="M105.045 33.3421C107.857 33.8077 110 36.2221 110 39.1304C110 42.3721 107.338 45 104.054 45C100.77 45 98.1081 42.3721 98.1081 39.1304C98.1081 36.2221 100.251 33.8077 103.063 33.3421V11.7391H105.045V33.3421Z"
                  fill="white" />
   </symbol>

   <symbol id="homeProductCardIcon-2" viewBox="0 0 140 140">
               <path
                  fill-rule="evenodd"
                  clip-rule="evenodd"
                  d="M45.7232 93.9928C45.891 95.2135 46.3945 98.876 51.3412 98.2387C52.6459 98.0703 52.8609 97.5257 53.6467 96.6991C54.5066 95.7946 55.1799 94.0168 54.38 92.8776C52.9966 90.9074 52.8985 89.3413 50.1665 89.6933C47.4345 90.0452 45.5554 92.772 45.7232 93.9928Z"
                  fill="white" />
               <path
                  fill-rule="evenodd"
                  clip-rule="evenodd"
                  d="M77.1145 132.364C78.1873 131.741 81.4058 129.87 78.855 125.624C78.1823 124.504 77.5889 124.52 76.5069 124.125C75.3228 123.693 73.3976 123.768 72.6508 124.934C71.3592 126.95 69.9367 127.645 71.3454 129.989C72.7542 132.334 76.0418 132.988 77.1145 132.364Z"
                  fill="white" />
               <path
                  fill-rule="evenodd"
                  clip-rule="evenodd"
                  d="M58.6524 119.465C59.7251 118.841 60.6893 118.036 58.8849 115.033C58.2121 113.914 57.6189 113.928 56.5367 113.534C55.3528 113.102 53.0315 112.985 52.6806 114.344C52.2456 116.028 51.0394 116.43 52.4481 118.775C53.8568 121.119 57.5796 120.088 58.6524 119.465Z"
                  fill="white" />
               <path
                  fill-rule="evenodd"
                  clip-rule="evenodd"
                  d="M71.4772 115.178C73.776 113.841 73.9045 112.335 72.6869 110.308C72.233 109.552 71.8151 109.573 71.0601 109.32C70.2341 109.045 68.0378 109.452 67.4914 110.264C66.5466 111.668 66.966 112.832 67.323 113.426C67.68 114.02 69.1783 116.514 71.4772 115.178Z"
                  fill="white" />
               <path
                  fill-rule="evenodd"
                  clip-rule="evenodd"
                  d="M41.8767 53.8192C42.9759 54.4078 46.2732 56.1738 48.6378 51.8488C49.2614 50.7082 48.9402 50.2142 48.7209 49.0977C48.4809 47.8762 47.416 46.2865 46.0147 46.2505C43.5914 46.1883 42.2498 45.3397 40.9439 47.7283C39.6379 50.1169 40.7776 53.2305 41.8767 53.8192Z"
                  fill="white" />
               <path
                  fill-rule="evenodd"
                  clip-rule="evenodd"
                  d="M91.6687 51.4799C91.7828 50.2546 92.1274 46.5788 87.1564 46.1012C85.8455 45.9753 85.5114 46.4577 84.5563 47.0878C83.5113 47.7772 82.449 49.3579 82.9695 50.6442C83.8698 52.8687 83.6083 54.4145 86.3537 54.6782C89.099 54.942 91.5535 52.7052 91.6687 51.4799Z"
                  fill="white" />
               <path
                  fill-rule="evenodd"
                  clip-rule="evenodd"
                  d="M70.3142 58.5783C70.4289 57.353 70.3319 56.1074 66.8154 55.7696C65.5044 55.6436 65.1703 56.126 64.2153 56.7561C63.1702 57.4455 61.7188 59.2283 62.6285 60.3126C63.7565 61.6573 63.3819 62.8575 66.1273 63.1213C68.8727 63.385 70.1995 59.8036 70.3142 58.5783Z"
                  fill="white" />
               <path
                  fill-rule="evenodd"
                  clip-rule="evenodd"
                  d="M74.2832 45.8058C74.529 43.1803 73.3681 42.1857 70.9952 41.9577C70.1105 41.8727 69.8834 42.2184 69.2362 42.6718C68.5281 43.168 67.5804 45.1619 67.9271 46.0784C68.5268 47.663 69.7261 48.0173 70.4218 48.0841C71.1177 48.151 74.0375 48.4315 74.2832 45.8058Z"
                  fill="white" />
               <path
                  fill-rule="evenodd"
                  clip-rule="evenodd"
                  d="M101.824 87.4168C100.993 86.4938 98.5009 83.725 94.7755 86.9837C93.7925 87.8432 93.9236 88.4149 93.7428 89.5361C93.5453 90.7628 93.997 92.6131 95.3037 93.1197C97.5636 93.9956 98.5326 95.2442 100.59 93.4444C102.648 91.6447 102.654 88.3397 101.824 87.4168Z"
                  fill="white" />
               <path
                  fill-rule="evenodd"
                  clip-rule="evenodd"
                  d="M54.1369 72.8122C53.6042 73.9228 52.0058 77.2545 56.52 79.3795C57.7106 79.94 58.1923 79.6002 59.31 79.3314C60.5328 79.0374 62.081 77.9131 62.0369 76.531C61.9608 74.1409 62.7428 72.7792 60.2496 71.6056C57.7565 70.4319 54.6697 71.7017 54.1369 72.8122Z"
                  fill="white" />
               <path
                  fill-rule="evenodd"
                  clip-rule="evenodd"
                  d="M76.7018 73.3584C76.169 74.469 75.8284 75.6701 79.0219 77.1734C80.2125 77.7338 80.6942 77.394 81.8118 77.1253C83.0346 76.8313 85.0192 75.6488 84.5388 74.3249C83.9429 72.6831 84.7119 71.6836 82.2187 70.51C79.7255 69.3364 77.2346 72.2479 76.7018 73.3584Z"
                  fill="white" />
               <path
                  fill-rule="evenodd"
                  clip-rule="evenodd"
                  d="M68.8819 84.2442C67.7402 86.624 68.4882 87.9485 70.6431 88.9628C71.4465 89.341 71.7802 89.0935 72.5467 88.8865C73.3854 88.6601 74.9689 87.1096 74.9602 86.133C74.9452 84.4444 73.9389 83.7075 73.3071 83.41C72.6752 83.1126 70.0237 81.8644 68.8819 84.2442Z"
                  fill="white" />
               <path
                  fill-rule="evenodd"
                  clip-rule="evenodd"
                  d="M50.701 27.6612C49.2945 25.4104 47.7643 25.3021 45.7374 26.528C44.9818 26.9851 45.0118 27.3971 44.7736 28.1448C44.5131 28.9629 44.9757 31.1241 45.8106 31.653C47.2544 32.5675 48.4246 32.1395 49.019 31.7801C49.6133 31.4206 52.1073 29.912 50.701 27.6612Z"
                  fill="white" />
               <path
                  fill-rule="evenodd"
                  clip-rule="evenodd"
                  d="M40.1711 8.02126C37.5152 8.31694 36.7762 9.63882 37.0553 11.9747C37.1594 12.8455 37.5505 12.9946 38.1379 13.5271C38.7806 14.1096 40.9597 14.6194 41.7946 14.099C43.2383 13.1989 43.3342 11.9697 43.2524 11.2848C43.1705 10.5998 42.827 7.7256 40.1711 8.02126Z"
                  fill="white" />
   </symbol>

   <symbol id="homeProductCardIcon-3" viewBox="0 0 140 140">
               <path
                  fill-rule="evenodd"
                  clip-rule="evenodd"
                  d="M45.7232 93.9928C45.891 95.2135 46.3945 98.876 51.3412 98.2387C52.6459 98.0703 52.8609 97.5257 53.6467 96.6991C54.5066 95.7946 55.1799 94.0168 54.38 92.8776C52.9966 90.9074 52.8985 89.3413 50.1665 89.6933C47.4345 90.0452 45.5554 92.772 45.7232 93.9928Z"
                  fill="white" />
               <path
                  fill-rule="evenodd"
                  clip-rule="evenodd"
                  d="M77.1145 132.364C78.1873 131.741 81.4058 129.87 78.855 125.624C78.1823 124.504 77.5889 124.52 76.5069 124.125C75.3228 123.693 73.3976 123.768 72.6508 124.934C71.3592 126.95 69.9367 127.645 71.3454 129.989C72.7542 132.334 76.0418 132.988 77.1145 132.364Z"
                  fill="white" />
               <path
                  fill-rule="evenodd"
                  clip-rule="evenodd"
                  d="M58.6524 119.465C59.7251 118.841 60.6893 118.036 58.8849 115.033C58.2121 113.914 57.6189 113.928 56.5367 113.534C55.3528 113.102 53.0315 112.985 52.6806 114.344C52.2456 116.028 51.0394 116.43 52.4481 118.775C53.8568 121.119 57.5796 120.088 58.6524 119.465Z"
                  fill="white" />
               <path
                  fill-rule="evenodd"
                  clip-rule="evenodd"
                  d="M71.4772 115.178C73.776 113.841 73.9045 112.335 72.6869 110.308C72.233 109.552 71.8151 109.573 71.0601 109.32C70.2341 109.045 68.0378 109.452 67.4914 110.264C66.5466 111.668 66.966 112.832 67.323 113.426C67.68 114.02 69.1783 116.514 71.4772 115.178Z"
                  fill="white" />
               <path
                  fill-rule="evenodd"
                  clip-rule="evenodd"
                  d="M41.8767 53.8192C42.9759 54.4078 46.2732 56.1738 48.6378 51.8488C49.2614 50.7082 48.9402 50.2142 48.7209 49.0977C48.4809 47.8762 47.416 46.2865 46.0147 46.2505C43.5914 46.1883 42.2498 45.3397 40.9439 47.7283C39.6379 50.1169 40.7776 53.2305 41.8767 53.8192Z"
                  fill="white" />
               <path
                  fill-rule="evenodd"
                  clip-rule="evenodd"
                  d="M91.6687 51.4799C91.7828 50.2546 92.1274 46.5788 87.1564 46.1012C85.8455 45.9753 85.5114 46.4577 84.5563 47.0878C83.5113 47.7772 82.449 49.3579 82.9695 50.6442C83.8698 52.8687 83.6083 54.4145 86.3537 54.6782C89.099 54.942 91.5535 52.7052 91.6687 51.4799Z"
                  fill="white" />
               <path
                  fill-rule="evenodd"
                  clip-rule="evenodd"
                  d="M70.3142 58.5783C70.4289 57.353 70.3319 56.1074 66.8154 55.7696C65.5044 55.6436 65.1703 56.126 64.2153 56.7561C63.1702 57.4455 61.7188 59.2283 62.6285 60.3126C63.7565 61.6573 63.3819 62.8575 66.1273 63.1213C68.8727 63.385 70.1995 59.8036 70.3142 58.5783Z"
                  fill="white" />
               <path
                  fill-rule="evenodd"
                  clip-rule="evenodd"
                  d="M74.2832 45.8058C74.529 43.1803 73.3681 42.1857 70.9952 41.9577C70.1105 41.8727 69.8834 42.2184 69.2362 42.6718C68.5281 43.168 67.5804 45.1619 67.9271 46.0784C68.5268 47.663 69.7261 48.0173 70.4218 48.0841C71.1177 48.151 74.0375 48.4315 74.2832 45.8058Z"
                  fill="white" />
               <path
                  fill-rule="evenodd"
                  clip-rule="evenodd"
                  d="M101.824 87.4168C100.993 86.4938 98.5009 83.725 94.7755 86.9837C93.7925 87.8432 93.9236 88.4149 93.7428 89.5361C93.5453 90.7628 93.997 92.6131 95.3037 93.1197C97.5636 93.9956 98.5326 95.2442 100.59 93.4444C102.648 91.6447 102.654 88.3397 101.824 87.4168Z"
                  fill="white" />
               <path
                  fill-rule="evenodd"
                  clip-rule="evenodd"
                  d="M54.1369 72.8122C53.6042 73.9228 52.0058 77.2545 56.52 79.3795C57.7106 79.94 58.1923 79.6002 59.31 79.3314C60.5328 79.0374 62.081 77.9131 62.0369 76.531C61.9608 74.1409 62.7428 72.7792 60.2496 71.6056C57.7565 70.4319 54.6697 71.7017 54.1369 72.8122Z"
                  fill="white" />
               <path
                  fill-rule="evenodd"
                  clip-rule="evenodd"
                  d="M76.7018 73.3584C76.169 74.469 75.8284 75.6701 79.0219 77.1734C80.2125 77.7338 80.6942 77.394 81.8118 77.1253C83.0346 76.8313 85.0192 75.6488 84.5388 74.3249C83.9429 72.6831 84.7119 71.6836 82.2187 70.51C79.7255 69.3364 77.2346 72.2479 76.7018 73.3584Z"
                  fill="white" />
               <path
                  fill-rule="evenodd"
                  clip-rule="evenodd"
                  d="M68.8819 84.2442C67.7402 86.624 68.4882 87.9485 70.6431 88.9628C71.4465 89.341 71.7802 89.0935 72.5467 88.8865C73.3854 88.6601 74.9689 87.1096 74.9602 86.133C74.9452 84.4444 73.9389 83.7075 73.3071 83.41C72.6752 83.1126 70.0237 81.8644 68.8819 84.2442Z"
                  fill="white" />
               <path
                  fill-rule="evenodd"
                  clip-rule="evenodd"
                  d="M50.701 27.6612C49.2945 25.4104 47.7643 25.3021 45.7374 26.528C44.9818 26.9851 45.0118 27.3971 44.7736 28.1448C44.5131 28.9629 44.9757 31.1241 45.8106 31.653C47.2544 32.5675 48.4246 32.1395 49.019 31.7801C49.6133 31.4206 52.1073 29.912 50.701 27.6612Z"
                  fill="white" />
               <path
                  fill-rule="evenodd"
                  clip-rule="evenodd"
                  d="M40.1711 8.02126C37.5152 8.31694 36.7762 9.63882 37.0553 11.9747C37.1594 12.8455 37.5505 12.9946 38.1379 13.5271C38.7806 14.1096 40.9597 14.6194 41.7946 14.099C43.2383 13.1989 43.3342 11.9697 43.2524 11.2848C43.1705 10.5998 42.827 7.7256 40.1711 8.02126Z"
                  fill="white" />
   </symbol>

   <symbol id="homeSliderBulletIcon" viewBox="0 0 100 100">
         <path
                        opacity="0.9"
                        d="M63.6974 8.80905L53.0985 2.81114C51.1873 1.72962 48.8125 1.72962 46.9014 2.81114L36.3024 8.80905C36.1436 8.89899 35.9659 8.95421 35.7821 8.9708L23.5236 10.0805C21.3132 10.2804 19.3919 11.6163 18.51 13.5664L13.6192 24.3808C13.5459 24.5428 13.4361 24.6875 13.2977 24.8043L4.06173 32.5975C2.39634 34.0028 1.66248 36.1643 2.1467 38.2379L4.83213 49.7381C4.87239 49.9105 4.87239 50.0892 4.83213 50.2616L2.1467 61.7618C1.66248 63.8354 2.39634 65.9969 4.06173 67.4022L13.2977 75.1954C13.4361 75.3122 13.5459 75.4569 13.6192 75.619L18.51 86.4334C19.3919 88.3834 21.3132 89.7192 23.5236 89.9193L35.7821 91.0289C35.9659 91.0455 36.1436 91.1008 36.3024 91.1906L46.9014 97.1889C48.8125 98.2704 51.1873 98.2704 53.0985 97.1889L63.6974 91.1906C63.8563 91.1008 64.0339 91.0455 64.2177 91.0289L76.4763 89.9193C78.6867 89.7192 80.608 88.3834 81.4899 86.4334L86.3807 75.619C86.454 75.4569 86.5637 75.3122 86.7023 75.1954L95.9382 67.4022C97.6036 65.9969 98.3376 63.8354 97.8532 61.7618L95.1677 50.2616C95.1275 50.0892 95.1275 49.9105 95.1677 49.7381L97.8532 38.2379C98.3376 36.1643 97.6036 34.0028 95.9382 32.5975L86.7023 24.8043C86.5637 24.6875 86.454 24.5428 86.3807 24.3808L81.4899 13.5664C80.608 11.6163 78.6867 10.2804 76.4762 10.0805L64.2177 8.9708C64.0339 8.95421 63.8563 8.89899 63.6974 8.80905Z"
                        fill="#EB4A00"
                        stroke="white"
                        stroke-width="4" />
   </symbol>

   <symbol id="homeSliderBulletIcon-1" viewBox="0 0 80 25">
        <path
                        d="M10.803 6.96141V9.64433H0.673828V6.96141H10.803ZM3.39024 2.84766H7.00006V19.0903C7.00006 19.7386 7.10469 20.2267 7.31395 20.5547C7.52322 20.8751 7.79285 21.095 8.12284 21.2142C8.46088 21.326 8.8271 21.3819 9.22148 21.3819C9.51123 21.3819 9.76476 21.3632 9.98207 21.326C10.1993 21.2887 10.3684 21.259 10.4891 21.2366L11.141 23.9977C10.9318 24.0722 10.634 24.1467 10.2476 24.2213C9.86135 24.3032 9.37843 24.3479 8.79893 24.3554C7.84919 24.3704 6.96384 24.2138 6.14288 23.8859C5.32192 23.558 4.6579 23.0512 4.15084 22.3656C3.64378 21.68 3.39024 20.8192 3.39024 19.7833V2.84766ZM12.7563 24.1318V6.96141H16.3661V24.1318H12.7563ZM14.5793 4.31207C13.9515 4.31207 13.4122 4.1183 12.9615 3.73077C12.5188 3.3358 12.2975 2.86629 12.2975 2.32227C12.2975 1.77078 12.5188 1.30128 12.9615 0.913757C13.4122 0.518778 13.9515 0.321289 14.5793 0.321289C15.2071 0.321289 15.7423 0.518778 16.185 0.913757C16.6357 1.30128 16.8611 1.77078 16.8611 2.32227C16.8611 2.86629 16.6357 3.3358 16.185 3.73077C15.7423 4.1183 15.2071 4.31207 14.5793 4.31207ZM26.9938 24.4784C25.1989 24.4784 23.6536 24.102 22.3578 23.3493C21.07 22.5891 20.08 21.5421 19.3878 20.2081C18.6956 18.8741 18.3496 17.3464 18.3496 15.6249C18.3496 13.881 18.7037 12.3421 19.412 11.0081C20.1203 9.66665 21.1183 8.61958 22.4061 7.86689C23.6938 7.11418 25.211 6.73784 26.9576 6.73784C28.3661 6.73784 29.6217 6.98004 30.7243 7.46445C31.827 7.94141 32.7164 8.61213 33.3925 9.47665C34.0766 10.3411 34.483 11.3509 34.6118 12.506H31.0986C30.9054 11.7012 30.4628 11.0081 29.7706 10.4268C29.0864 9.84553 28.1689 9.55489 27.0179 9.55489C26.0119 9.55489 25.1305 9.80081 24.374 10.2927C23.6254 10.777 23.0419 11.4702 22.6234 12.3719C22.2049 13.2662 21.9956 14.3244 21.9956 15.5466C21.9956 16.7986 22.2008 17.8792 22.6113 18.7884C23.0218 19.6977 23.6013 20.4019 24.3498 20.9012C25.1064 21.4005 25.9958 21.6502 27.0179 21.6502C27.7021 21.6502 28.3218 21.5347 28.8772 21.3036C29.4406 21.0652 29.9114 20.7261 30.2897 20.2864C30.676 19.8466 30.9457 19.3176 31.0986 18.699H34.6118C34.483 19.8094 34.0927 20.8006 33.4407 21.6726C32.7888 22.5444 31.9155 23.2301 30.8209 23.7294C29.7343 24.2287 28.4586 24.4784 26.9938 24.4784ZM39.7524 18.3078L39.7282 14.2276H40.356L47.7447 6.96141H52.0668L43.6399 15.2336H43.0724L39.7524 18.3078ZM36.4323 24.1318V1.23794H40.0421V24.1318H36.4323ZM48.1431 24.1318L41.5029 15.9714L43.99 13.6351L52.5738 24.1318H48.1431ZM60.5455 24.4784C58.7184 24.4784 57.1449 24.1169 55.825 23.3941C54.513 22.6637 53.4989 21.639 52.7826 20.3199C52.0743 18.9934 51.7202 17.4395 51.7202 15.6584C51.7202 13.8996 52.0743 12.3495 52.7826 11.0081C53.4989 9.66665 54.4969 8.61958 55.7767 7.86689C57.0645 7.11418 58.5695 6.73784 60.292 6.73784C61.3383 6.73784 62.3524 6.89806 63.3343 7.21853C64.3163 7.53898 65.1976 8.04202 65.9783 8.72764C66.759 9.41322 67.3748 10.3039 67.8255 11.3993C68.2762 12.4874 68.5016 13.8102 68.5016 15.3678V16.5527H53.7605V14.0487H64.9642C64.9642 13.1693 64.771 12.3905 64.3847 11.7124C63.9983 11.0267 63.4551 10.4865 62.7548 10.0915C62.0627 9.69646 61.2497 9.49896 60.3161 9.49896C59.302 9.49896 58.4166 9.72998 57.66 10.192C56.9115 10.6466 56.332 11.2428 55.9215 11.9806C55.5191 12.711 55.3179 13.5046 55.3179 14.3616V16.3179C55.3179 17.4656 55.5352 18.4419 55.9698 19.2467C56.4125 20.0516 57.0282 20.6665 57.817 21.0913C58.6058 21.5086 59.5273 21.7172 60.5817 21.7172C61.2658 21.7172 61.8896 21.6279 62.453 21.449C63.0164 21.2627 63.5034 20.9869 63.9138 20.6217C64.3243 20.2566 64.6382 19.8057 64.8555 19.2691L68.2722 19.8392C67.9985 20.7708 67.5076 21.5868 66.7993 22.2874C66.099 22.9804 65.2177 23.5207 64.1553 23.9082C63.1009 24.2883 61.8977 24.4784 60.5455 24.4784ZM79.1232 6.96141V9.64433H68.994V6.96141H79.1232ZM71.7104 2.84766H75.3202V19.0903C75.3202 19.7386 75.4249 20.2267 75.6341 20.5547C75.8434 20.8751 76.113 21.095 76.443 21.2142C76.7811 21.326 77.1473 21.3819 77.5417 21.3819C77.8314 21.3819 78.0849 21.3632 78.3023 21.326C78.5196 21.2887 78.6886 21.259 78.8093 21.2366L79.4613 23.9977C79.252 24.0722 78.9542 24.1467 78.5679 24.2213C78.1815 24.3032 77.6986 24.3479 77.1191 24.3554C76.1694 24.3704 75.284 24.2138 74.4631 23.8859C73.6421 23.558 72.9781 23.0512 72.471 22.3656C71.964 21.68 71.7104 20.8192 71.7104 19.7833V2.84766Z"
                        fill="white" />
   </symbol>

   <symbol id="homeSliderBulletText" viewBox="0 0 60 25">
         <path
                        d="M15.5604 10.621L12.1758 11.1783C12.0343 10.7759 11.8094 10.3928 11.5013 10.029C11.2016 9.66528 10.7936 9.36732 10.2774 9.13515C9.76116 8.90298 9.11588 8.7869 8.34155 8.7869C7.28412 8.7869 6.40156 9.00745 5.69384 9.44859C4.9861 9.88201 4.63224 10.4431 4.63224 11.1318C4.63224 11.7278 4.86954 12.2076 5.34413 12.5713C5.81872 12.935 6.58473 13.233 7.64216 13.4652L10.6895 14.1153C12.4547 14.4944 13.7702 15.0787 14.6362 15.8682C15.502 16.6575 15.935 17.683 15.935 18.9444C15.935 20.0124 15.602 20.9643 14.9359 21.8002C14.2781 22.6283 13.3581 23.2783 12.1758 23.7504C11.0017 24.2225 9.64044 24.4585 8.09177 24.4585C5.94361 24.4585 4.19096 24.0329 2.83379 23.1815C1.47662 22.3225 0.644005 21.1036 0.335938 19.5249L3.94533 19.014C4.17014 19.8885 4.63224 20.5503 5.33164 20.9991C6.03104 21.4403 6.94276 21.6609 8.06679 21.6609C9.29073 21.6609 10.2691 21.4248 11.0017 20.9527C11.7345 20.4729 12.1008 19.8885 12.1008 19.1998C12.1008 18.6426 11.876 18.1744 11.4264 17.7952C10.9851 17.416 10.3065 17.1296 9.39065 16.9361L6.14344 16.2744C4.35332 15.8952 3.02945 15.2916 2.17186 14.4635C1.32259 13.6354 0.897954 12.5868 0.897954 11.3176C0.897954 10.2651 1.21435 9.34411 1.84714 8.55472C2.47992 7.76534 3.35418 7.15008 4.46989 6.70895C5.58559 6.26009 6.86366 6.03565 8.30408 6.03565C10.3773 6.03565 12.0092 6.45357 13.1999 7.28939C14.3905 8.11746 15.1773 9.22802 15.5604 10.621ZM23.5134 24.4934C22.2978 24.4934 21.1987 24.2844 20.2162 23.8664C19.2337 23.4409 18.4552 22.8256 17.8807 22.0207C17.3146 21.2159 17.0314 20.2291 17.0314 19.0605C17.0314 18.0544 17.2396 17.2263 17.6559 16.5762C18.0722 15.9261 18.6343 15.4115 19.3419 15.0323C20.0497 14.6531 20.8407 14.3667 21.7149 14.1733C22.5892 13.9798 23.4801 13.8328 24.3876 13.7322C25.5366 13.6084 26.4692 13.5077 27.1852 13.4304C27.9012 13.3452 28.4217 13.2098 28.7464 13.024C29.0711 12.8383 29.2335 12.5364 29.2335 12.1185V12.0373C29.2335 11.0235 28.9254 10.238 28.3093 9.68076C27.7015 9.12354 26.7939 8.84493 25.5866 8.84493C24.3294 8.84493 23.3386 9.10419 22.6141 9.62268C21.8981 10.1335 21.4027 10.7023 21.128 11.3292L17.6185 10.5862C18.0348 9.50276 18.6425 8.62824 19.4419 7.96268C20.2495 7.28939 21.1778 6.80182 22.227 6.5C23.2761 6.19043 24.3793 6.03565 25.5366 6.03565C26.3027 6.03565 27.1144 6.12078 27.972 6.29104C28.838 6.45357 29.6456 6.75539 30.395 7.19651C31.1526 7.63765 31.7729 8.26838 32.2559 9.08871C32.7388 9.90134 32.9802 10.9577 32.9802 12.2579V24.0986H29.3334V21.6609H29.1835C28.942 22.1097 28.5799 22.5509 28.097 22.9842C27.614 23.4176 26.9937 23.7775 26.236 24.0638C25.4784 24.3502 24.5708 24.4934 23.5134 24.4934ZM24.3251 21.7073C25.3577 21.7073 26.2402 21.5177 26.9729 21.1385C27.7139 20.7592 28.2759 20.2639 28.6589 19.6526C29.0503 19.0335 29.246 18.3717 29.246 17.6675V15.3689C29.1127 15.4928 28.8546 15.6088 28.4717 15.7172C28.097 15.8179 27.6682 15.9068 27.1852 15.9842C26.7023 16.0538 26.2319 16.1197 25.7739 16.1815C25.316 16.2358 24.933 16.2822 24.6249 16.3209C23.9006 16.4061 23.2386 16.5492 22.6391 16.7504C22.0479 16.9516 21.5734 17.2418 21.2154 17.621C20.8656 17.9925 20.6908 18.4878 20.6908 19.1069C20.6908 19.966 21.0322 20.6161 21.7149 21.0572C22.3977 21.4906 23.2678 21.7073 24.3251 21.7073ZM39.5782 0.324219V24.0986H35.8439V0.324219H39.5782ZM50.7597 24.4585C48.8697 24.4585 47.2418 24.0832 45.8764 23.3325C44.5192 22.574 43.4701 21.5099 42.7291 20.1401C41.9964 18.7626 41.6301 17.1489 41.6301 15.2993C41.6301 13.4729 41.9964 11.8632 42.7291 10.4702C43.4701 9.07711 44.5025 7.98977 45.8265 7.20813C47.1587 6.42647 48.7157 6.03565 50.4975 6.03565C51.5798 6.03565 52.6289 6.20204 53.6447 6.53483C54.6605 6.86761 55.5722 7.38999 56.3798 8.10198C57.1875 8.81398 57.8245 9.73884 58.2907 10.8764C58.757 12.0063 58.9901 13.38 58.9901 14.9975V16.228H43.7407V13.6277H55.3308C55.3308 12.7145 55.1309 11.9058 54.7313 11.2015C54.3317 10.4895 53.7696 9.92845 53.0452 9.51823C52.3292 9.10807 51.4883 8.90298 50.5224 8.90298C49.4733 8.90298 48.5574 9.14289 47.7748 9.62268C47.0004 10.0948 46.4009 10.7139 45.9764 11.4801C45.56 12.2385 45.3518 13.0627 45.3518 13.9527V15.9842C45.3518 17.1761 45.5766 18.1899 46.0262 19.0257C46.4842 19.8615 47.1211 20.5 47.9371 20.9411C48.7531 21.3745 49.7064 21.5911 50.7971 21.5911C51.5049 21.5911 52.1501 21.4984 52.733 21.3126C53.3158 21.1191 53.8196 20.8328 54.2442 20.4536C54.6688 20.0743 54.9935 19.6061 55.2183 19.0489L58.7528 19.641C58.4697 20.6084 57.9619 21.4558 57.2291 22.1833C56.5048 22.903 55.593 23.464 54.494 23.8664C53.4032 24.2611 52.1585 24.4585 50.7597 24.4585Z"
                        fill="white" />
   </symbol>

   <symbol id="homeSliderItemIcon-1" viewBox="0 0 180 180">
      <path
                        d="M105.415 3.95109C99.8028 28.6794 71.4636 78.1359 3 78.1359C71.4636 78.1359 99.8028 144.712 105.415 178C109.392 153.588 129.477 104.766 178 104.766C129.477 104.766 109.392 36.9221 105.415 3"
                        stroke="#EB4A00"
                        stroke-width="6"
                        stroke-linecap="round" />
   </symbol>

   <symbol id="homeSliderItemIcon-2" viewBox="0 0 350 120">
      <path
                           d="M291.132 112.776C225.618 122.759 79.0004 128.124 16.6411 69.7244C-61.3082 -3.27562 172.21 -5.20814 261.104 6.0834C314.293 12.8395 349.036 29.3696 349.036 53.2854C349.036 73.8752 288.705 104.821 179.516 98.971"
                           stroke="#EB4A00"
                           stroke-width="2"
                           stroke-linecap="round" />
   </symbol>














   <symbol id="footerCatalog" viewBox="0 0 45 45">
      <path d="M39.5833 0H30.4167C27.4251 0 25 2.42512 25 5.41666V14.5833C25 17.5749 27.4251 20 30.4167 20H39.5833C42.5749 20 45 17.5749 45 14.5833V5.41666C45 2.42512 42.5749 0 39.5833 0Z" fill="#EB4A00" />
      <path d="M14.5833 0H5.41666C2.42512 0 0 2.42512 0 5.41666V14.5833C0 17.5749 2.42512 20 5.41666 20H14.5833C17.5749 20 20 17.5749 20 14.5833V5.41666C20 2.42512 17.5749 0 14.5833 0Z" fill="#EB4A00" />
      <path d="M14.5833 25H5.41666C2.42512 25 0 27.4251 0 30.4167V39.5833C0 42.5749 2.42512 45 5.41666 45H14.5833C17.5749 45 20 42.5749 20 39.5833V30.4167C20 27.4251 17.5749 25 14.5833 25Z" fill="#EB4A00" />
      <path d="M39.5833 25.0002H30.4167C27.4251 25.0002 25 27.4254 25 30.4169V39.5836C25 42.5751 27.4251 45.0002 30.4167 45.0002H39.5833C42.5749 45.0002 45 42.5751 45 39.5836V30.4169C45 27.4254 42.5749 25.0002 39.5833 25.0002Z" fill="#EB4A00" />
   </symbol>

   <symbol id="footerClient" viewBox="0 0 45 45">
      <path fill-rule="evenodd" clip-rule="evenodd" d="M7.24361 1.0175C0.740812 4.16592 -2.01691 13.5915 1.61528 20.2548C2.63883 22.1327 21.9248 45 22.4849 45C23.045 45 42.3309 22.1327 43.3545 20.2548C47.9762 11.7763 42.2819 0.12603 33.4948 0.0841315C29.7335 0.0659588 27.4912 1.04325 24.8663 3.84285L22.4849 6.38301L20.1034 3.84184C16.577 0.0790837 11.4902 -1.03803 7.24361 1.0175Z" fill="#EB4A00" />
   </symbol>

   <symbol id="footerContact" viewBox="0 0 45 45">
      <path fill-rule="evenodd" clip-rule="evenodd" d="M4.65543 0.106088C2.5185 0.573146 0.858435 2.10064 0.205362 4.20048L0 4.86066V22.5097V40.1586L0.205362 40.8188C0.512613 41.807 0.95918 42.5408 1.70974 43.291C2.46029 44.0412 3.19439 44.4876 4.18298 44.7947L4.84344 45H22.5H40.1566L40.817 44.7947C41.8056 44.4876 42.5397 44.0412 43.2903 43.291C44.0408 42.5408 44.4874 41.807 44.7946 40.8188L45 40.1586V22.5097V4.86066L44.7946 4.20048C44.4874 3.21231 44.0408 2.47853 43.2903 1.7283C42.5617 0.999982 41.835 0.55035 40.861 0.225098L40.2446 0.019295L22.7202 0.00362682C8.34558 -0.00922452 5.09856 0.00917222 4.65543 0.106088ZM23.7673 10.6238C25.7109 11.1207 27.3469 12.6858 27.9102 14.5874C28.1317 15.3351 28.1786 16.5399 28.0157 17.3028C27.4341 20.0285 25.1384 21.8966 22.3758 21.8922C20.7452 21.8895 19.5366 21.396 18.3964 20.267C17.1912 19.0735 16.6768 17.8833 16.6644 16.2599C16.6514 14.5599 17.1453 13.335 18.3153 12.1645C19.7957 10.6838 21.7935 10.1192 23.7673 10.6238ZM28.6885 23.502C30.7426 24.5948 32.5717 26.52 33.6416 28.7154C34.4299 30.333 34.7738 31.7819 34.7802 33.5128C34.7844 34.6116 34.7675 34.7376 34.5574 35.1854C34.2669 35.8044 33.5989 36.4722 32.9796 36.7625L32.4951 36.9897H22.5881H12.681L12.1794 36.7547C11.5395 36.4549 10.9264 35.8422 10.6265 35.2025C10.4078 34.7361 10.3915 34.6181 10.3927 33.5128C10.3942 32.1794 10.5038 31.4951 10.9225 30.2058C11.8822 27.2494 14.0738 24.6968 16.8338 23.3204L17.6401 22.9182L18.6391 23.4159C20.0786 24.1331 20.8255 24.3086 22.4119 24.3029C23.4364 24.2992 23.828 24.2604 24.3933 24.1072C25.1313 23.9072 26.3157 23.38 26.8644 23.0072L27.1868 22.7883L27.5953 22.963C27.82 23.0591 28.312 23.3016 28.6885 23.502Z" fill="#EB4A00" />
   </symbol>

   <symbol id="footerPaymentVisa" viewBox="0 0 75 50">
      <path d="M0 6.25C0 2.79822 2.79822 0 6.25 0H68.75C72.2019 0 75 2.79822 75 6.25V43.75C75 47.2018 72.2019 50 68.75 50H6.25C2.79822 50 0 47.2018 0 43.75V6.25Z" fill="white" />
      <path d="M64.5468 15.6799H60.6178C59.4299 15.6799 58.5162 16.0454 57.9679 17.2333L50.4753 34.3203H55.775C55.775 34.3203 56.6886 32.0359 56.8715 31.4877C57.4197 31.4877 62.628 31.4877 63.359 31.4877C63.5417 32.1273 63.9986 34.2289 63.9986 34.2289H68.7501L64.5468 15.6799ZM58.3335 27.6499C58.7902 26.5534 60.3436 22.4416 60.3436 22.4416C60.3436 22.533 60.8005 21.3451 60.9833 20.7055L61.3487 22.3502C61.3487 22.3502 62.3539 26.8276 62.5367 27.7413H58.3335V27.6499Z" fill="#3362AB" />
      <path d="M50.8403 28.1977C50.8403 32.0354 47.3681 34.5938 41.9771 34.5938C39.6927 34.5938 37.4997 34.137 36.3118 33.5887L37.0428 29.3855L37.6824 29.6597C39.3272 30.3906 40.4237 30.6648 42.4339 30.6648C43.8959 30.6648 45.4492 30.1166 45.4492 28.8373C45.4492 28.0149 44.8097 27.4667 42.7994 26.5529C40.8805 25.6392 38.3221 24.1771 38.3221 21.5273C38.3221 17.8723 41.8856 15.4053 46.9113 15.4053C48.8301 15.4053 50.4749 15.7707 51.48 16.2276L50.749 20.2481L50.3834 19.8826C49.4698 19.5171 48.2818 19.1516 46.5457 19.1516C44.6269 19.243 43.7132 20.0654 43.7132 20.7963C43.7132 21.6188 44.8097 22.2584 46.5457 23.0807C49.4698 24.4513 50.8403 26.0047 50.8403 28.1977Z" fill="#3362AB" />
      <path d="M6.25 15.8625L6.34138 15.4971H14.1996C15.2961 15.4971 16.1184 15.8625 16.3926 17.0504L18.1286 25.2741C16.3926 20.8881 12.372 17.3245 6.25 15.8625Z" fill="#F9B50B" />
      <path d="M29.1854 15.6797L21.2359 34.2287H15.8447L11.276 18.6951C14.5655 20.7966 17.3067 24.0862 18.3118 26.3705L18.8601 28.2894L23.7943 15.5884H29.1854V15.6797Z" fill="#3362AB" />
      <path d="M31.2873 15.5884H36.3129L33.1148 34.2287H28.0892L31.2873 15.5884Z" fill="#3362AB" />
   </symbol>

   <symbol id="footerPaymentMaster" viewBox="0 0 75 50">
      <path d="M-0.273438 7.9614C-0.273438 3.56444 3.29101 0 7.68797 0H66.7652C71.1621 0 74.7266 3.56444 74.7266 7.9614V42.0386C74.7266 46.4356 71.1621 50 66.7652 50H7.68798C3.29102 50 -0.273438 46.4356 -0.273438 42.0386V7.9614Z" fill="white" />
      <path d="M45.0513 10.2001L28.9121 10.2556L29.4012 39.8022L45.5403 39.7467L45.0513 10.2001Z" fill="#FF5F00" />
      <path d="M29.974 25.0874C29.8741 19.0779 32.5663 13.7381 36.7829 10.2745C33.6 7.77699 29.6099 6.27511 25.2845 6.28993C15.0372 6.32503 6.88653 14.7668 7.05934 25.1659C7.23216 35.565 15.6624 43.95 25.9096 43.9149C30.2352 43.9001 34.175 42.3711 37.2744 39.852C32.9439 36.4699 30.0738 31.097 29.974 25.0874Z"
      fill="#EB001B" />
      <path d="M67.3928 24.8344C67.5656 35.2335 59.4149 43.6753 49.1677 43.7103C44.8423 43.7251 40.852 42.2233 37.6693 39.7257C41.9375 36.2619 44.5781 30.9224 44.4781 24.9128C44.3783 18.9033 41.509 13.5827 37.1777 10.1483C40.2772 7.62921 44.217 6.10017 48.5424 6.08535C58.7898 6.05026 67.2209 14.4875 67.3928 24.8344Z"
      fill="#F79E1B" />
   </symbol>

   <symbol id="footerSocialLike" viewBox="0 0 124 124">
      <path d="M62 124C96.2417 124 124 96.2417 124 62C124 27.7583 96.2417 0 62 0C27.7583 0 0 27.7583 0 62C0 96.2417 27.7583 124 62 124Z" fill="currentColor" />
      <path fill-rule="evenodd" clip-rule="evenodd" d="M48.0051 37.584C43.3857 39.1684 40.5699 41.6921 38.2408 46.3359C37.1411 48.5289 36.9961 49.3579 37.0003 53.4372C37.0081 60.4451 37.2253 60.7889 50.6033 74.9584L61.9716 87.0001L73.2278 75.2015C86.6437 61.1399 87.0002 60.5764 87.0002 53.4372C87.0002 49.6267 86.8178 48.4298 85.9561 46.594C84.2595 42.979 81.9076 40.4918 78.5399 38.7513C75.7653 37.3171 75.0295 37.1509 71.4566 37.1509C67.9241 37.1509 67.1582 37.3191 64.7327 38.6288L61.9956 40.1072L59.3414 38.6779C56.1756 36.9734 51.1881 36.4921 48.0051 37.584ZM57.3652 42.4388C58.6385 43.0693 60.18 44.1554 60.7913 44.8521L61.9021 46.1186L63.539 44.609C65.8603 42.4694 68.5714 41.3061 71.2566 41.2969C74.7494 41.2847 76.9206 42.1166 79.2489 44.3587C81.8988 46.9114 83.2148 49.9232 83.2148 53.4372C83.2148 58.2594 82.154 59.8783 71.8521 70.777C66.7127 76.2136 62.2735 80.6621 61.9868 80.6621C61.6997 80.6621 57.2573 76.1966 52.1142 70.7385C45.2666 63.472 42.505 60.2025 41.7988 58.5263C40.6084 55.7012 40.5366 51.5513 41.6284 48.6932C42.5499 46.2814 46.1756 42.6528 48.4158 41.9002C51.1854 40.9697 54.842 41.1899 57.3652 42.4388Z" fill="white" />
   </symbol>

   <symbol id="footerSocialTikTok" viewBox="0 0 124 124">
      <path d="M62 124C96.2417 124 124 96.2417 124 62C124 27.7583 96.2417 0 62 0C27.7583 0 0 27.7583 0 62C0 96.2417 27.7583 124 62 124Z" fill="currentColor" />
      <path fill-rule="evenodd" clip-rule="evenodd" d="M63.0533 37.4456C62.6043 37.883 62.5961 38.1887 62.5947 54.6493C62.594 65.1888 62.5083 71.7064 62.3638 72.2133C61.8412 74.0459 59.9782 75.7665 58.0892 76.1611C54.0533 77.0043 50.5759 73.7123 51.2001 69.6394C51.5237 67.5274 53.7248 65.4443 55.9154 65.1769C56.5093 65.1045 57.2522 64.9196 57.5666 64.7661L58.1381 64.4871L58.2001 59.8413C58.2739 54.3016 58.3007 54.3709 56.0818 54.3709C54.1434 54.3709 51.4287 55.0784 49.1144 56.1865C47.5393 56.9407 46.7922 57.4919 45.1137 59.1385C42.8555 61.3537 41.8204 62.8774 40.9862 65.214C39.4107 69.6273 39.7173 73.7747 41.946 78.1993C42.8342 79.9624 43.3381 80.631 44.9738 82.2162C47.152 84.327 49.2813 85.5607 52.3085 86.4658C54.5284 87.1292 58.7145 87.1837 60.9958 86.5789C66.9938 84.9882 71.6968 80.3404 73.1071 74.6092C73.5229 72.9195 73.5664 71.9835 73.5677 64.6709C73.5687 60.2034 73.6587 56.5978 73.7697 56.5978C73.8796 56.5978 74.564 56.854 75.2906 57.1669C76.9498 57.8818 79.7883 58.5378 82.0657 58.733C83.743 58.8765 83.8433 58.8583 84.409 58.3074L85 57.7317V53.4035C85 48.1034 85.0408 48.1905 82.42 47.904C79.9908 47.6388 78.1384 46.7462 76.4611 45.0332C74.8621 43.4001 74.0488 41.7393 73.7449 39.4864C73.4016 36.9398 73.5394 37.0001 68.0574 37.0001C63.8152 37.0001 63.4799 37.03 63.0533 37.4456ZM71.0133 41.2103C71.9569 45.661 76.1479 49.7387 80.6692 50.6052L82.0279 50.8656V55.7071H81.2759C79.5389 55.7071 76.0779 54.5314 74.0426 53.25C72.392 52.2109 71.7248 52.144 71.0714 52.9534C70.6089 53.526 70.5974 53.7674 70.5974 62.964C70.5974 68.8955 70.505 72.825 70.3482 73.568C70.2111 74.217 69.6852 75.5921 69.1796 76.6239C67.4202 80.213 63.7114 83.0549 59.7089 83.8811C56.5639 84.53 53.6366 84.1357 50.5305 82.6443C45.7401 80.3439 42.6324 75.075 43.0199 69.9099C43.4863 63.694 48.2287 58.49 54.4232 57.3972L55.2805 57.2458V59.8171C55.2805 62.1171 55.2385 62.3882 54.8804 62.3884C54.0709 62.3886 51.6978 63.6865 50.6623 64.6951C47.1502 68.1164 47.291 73.7395 50.9695 76.9613C55.4067 80.8476 62.1635 79.5093 64.7281 74.2361L65.4537 72.7438L65.5794 39.8952H70.7346L71.0133 41.2103Z" fill="white" />
   </symbol>

   <symbol id="footerSocialTelegram" viewBox="0 0 124 124">
      <path d="M62 124C96.2417 124 124 96.2417 124 62C124 27.7583 96.2417 0 62 0C27.7583 0 0 27.7583 0 62C0 96.2417 27.7583 124 62 124Z" fill="currentColor" />
      <path fill-rule="evenodd" clip-rule="evenodd" d="M67.3067 47.0742C57.5727 50.9969 46.9028 55.2926 43.5957 56.6205C37.0539 59.2476 36.6755 59.497 37.1367 60.8793C37.327 61.4501 38.213 61.9772 43.8227 64.8584C47.3793 66.6851 50.5361 68.1822 50.8379 68.1852C51.266 68.1896 58.707 63.9764 61.4641 62.1684C62.5057 61.4853 61.9026 62.1327 59.1953 64.6036C57.6665 65.9988 56.1859 67.3718 55.9052 67.6549C55.3954 68.1686 55.3945 68.1826 55.3945 76.118C55.3945 83.7549 55.4122 84.0843 55.8483 84.533C56.1237 84.8165 56.6046 84.9999 57.0722 84.9999C57.8035 84.9999 57.983 84.8059 60.6406 81.1478C62.1797 79.0292 63.5052 77.2957 63.5865 77.2957C63.6675 77.2957 66.6821 79.029 70.2852 81.1474C77.2501 85.242 77.9705 85.5295 78.6285 84.4747C78.8088 84.1856 80.8203 74.3483 83.0984 62.6134C86.9303 42.8762 87.2157 41.2319 86.9097 40.6681C86.6661 40.2197 86.3712 40.0434 85.792 40.0007C85.2102 39.9578 80.3872 41.8032 67.3067 47.0742ZM83.4199 44.6697C83.3546 44.9584 81.7652 53.1267 79.8876 62.8212C78.0102 72.5157 76.4342 80.571 76.3852 80.7218C76.3323 80.8857 73.7566 79.501 69.9864 77.282C66.4109 75.1776 63.4247 73.5665 63.0957 73.5641C62.3176 73.559 62.0819 73.7894 60.2907 76.3035C59.4447 77.4914 58.7116 78.463 58.6617 78.463C58.612 78.463 58.571 76.4397 58.571 73.9669V69.4706L67.6536 61.1849C73.4288 55.9161 76.7877 52.6925 76.8777 52.3316C77.1058 51.4202 76.5066 50.5752 75.5815 50.5036C74.9096 50.4516 73.0341 51.4988 62.7746 57.6554L50.7547 64.8684L46.6187 62.7444C44.3438 61.5762 42.5205 60.5814 42.5666 60.5337C42.7226 60.3733 82.9602 44.1826 83.2506 44.1635C83.4358 44.1511 83.4961 44.3321 83.4199 44.6697Z" fill="white" />
   </symbol>

   <symbol id="footerSocialWhatsApp" viewBox="0 0 124 124">
      <path d="M62 124C96.2417 124 124 96.2417 124 62C124 27.7583 96.2417 0 62 0C27.7583 0 0 27.7583 0 62C0 96.2417 27.7583 124 62 124Z" fill="currentColor" />
      <path fill-rule="evenodd" clip-rule="evenodd" d="M56.9978 37.3177C50.037 38.9405 44.7418 42.5852 41.036 48.3034C38.2632 52.5816 37.119 56.5717 37.1255 61.9399C37.1299 65.713 37.7243 68.6504 39.1565 71.9787L40.2592 74.5416L38.5649 80.7012C37.6331 84.0886 36.9314 86.9209 37.0052 86.9945C37.079 87.0684 40.0377 86.369 43.5802 85.4403L50.0209 83.7522L51.8814 84.6112C55.3034 86.1906 57.3515 86.5754 62.2691 86.5614C66.5185 86.5494 66.9272 86.4934 69.7111 85.5397C73.4761 84.25 76.3342 82.5541 79.0449 80.0016C89.6392 70.0256 89.6534 53.6121 79.0762 43.6522C76.3205 41.0571 73.4671 39.3662 69.7111 38.1023C67.1033 37.2249 66.3026 37.1001 62.7343 37.0156C60.2049 36.9559 58.0679 37.0682 56.9978 37.3177ZM67.3802 41.7327C76.3798 44.0552 82.7345 52.3653 82.7345 61.8121C82.7345 75.2906 70.1573 85.1896 57.0334 82.0399C56.2464 81.8511 54.4461 81.164 53.033 80.5133L50.4636 79.33L46.8891 80.2629C44.9234 80.7761 43.2003 81.1525 43.0605 81.0993C42.9203 81.0463 43.2685 79.3526 43.8341 77.3361L44.8621 73.6694L43.9759 72.2289C42.4943 69.8216 41.4453 66.1971 41.2744 62.896C41.0738 59.022 41.6945 56.131 43.5191 52.4417C46.4146 46.5874 52.3329 42.2581 58.849 41.2276C61.0344 40.8822 64.9923 41.1165 67.3802 41.7327ZM52.1914 50.5571C51.2494 51.0282 49.9021 52.9451 49.5216 54.3555C48.5691 57.8863 51.3803 63.3875 56.5398 68.0886C61.4642 72.5759 68.1738 74.84 71.5105 73.141C73.7329 72.0091 74.6724 70.5788 74.6724 68.327C74.6724 67.7699 74.1195 67.3807 71.6491 66.1983C69.9862 65.4025 68.5421 64.752 68.4394 64.752C68.3371 64.7522 67.641 65.5186 66.8924 66.455C66.144 67.3913 65.3516 68.1573 65.1319 68.1573C63.9786 68.1573 60.6995 66.043 58.7032 64.0115C56.2743 61.5406 55.4712 60.2849 55.9268 59.6707C56.0895 59.4513 56.6135 58.7112 57.0916 58.026L57.9605 56.7797L56.6911 53.7346C55.9928 52.0599 55.2529 50.5827 55.0468 50.4519C54.5298 50.1241 52.9403 50.1825 52.1914 50.5571Z" fill="white" />
   </symbol>

   <symbol id="footerSocialTaplink" viewBox="0 0 124 124">
      <path d="M62 124C96.2417 124 124 96.2417 124 62C124 27.7583 96.2417 0 62 0C27.7583 0 0 27.7583 0 62C0 96.2417 27.7583 124 62 124Z" fill="currentColor" />
      <path fill-rule="evenodd" clip-rule="evenodd" d="M58.8661 38.3457C53.81 39.2655 49.6143 41.3355 46.0591 44.6647C34.123 55.8412 35.6614 74.8463 49.2402 83.9582C53.5437 86.8458 57.4722 88.0001 62.9982 88.0001C68.5241 88.0001 72.4525 86.8458 76.7561 83.9582C88.5349 76.0542 91.5308 60.3881 83.493 48.7302C81.7094 46.1433 78.4578 43.0701 75.879 41.5341C70.8867 38.5603 64.3845 37.342 58.8661 38.3457ZM68.4768 41.74C76.5831 44.1077 81.857 49.402 84.292 57.6165C85.753 62.5451 85.2747 67.1179 82.7327 72.5226C80.5794 77.1011 77.6194 80.1855 73.1243 82.5357C67.8596 85.2881 62.5199 85.9283 57.5056 84.4086C49.376 81.945 44.168 76.7186 41.7032 68.5514C40.632 65.0023 40.6274 61.1355 41.6902 57.6165C43.6942 50.9819 47.2703 46.4961 52.8582 43.6081C58.418 40.7343 63.112 40.1732 68.4768 41.74ZM48.9712 54.0813C48.7853 54.2676 48.6332 54.6235 48.6332 54.872C48.6332 55.9839 48.8569 56.0016 62.7914 56.0016C71.5461 56.0016 76.4645 55.8992 76.8183 55.7093C77.4323 55.3798 77.5326 54.5902 77.0251 54.0813C76.5381 53.593 49.4582 53.593 48.9712 54.0813ZM49.1262 62.2373C48.4704 62.6202 48.4992 63.535 49.178 63.8992C49.5314 64.0888 54.3856 64.1915 62.9982 64.1915C71.6106 64.1915 76.4648 64.0888 76.8183 63.8992C77.118 63.7383 77.3631 63.3615 77.3631 63.0619C77.3631 62.7623 77.118 62.3855 76.8183 62.2245C76.0773 61.827 49.8081 61.8391 49.1262 62.2373ZM48.9712 70.4611C48.7853 70.6474 48.6332 71.0033 48.6332 71.2517C48.6332 72.3645 48.8481 72.3814 62.9982 72.3814C73.2696 72.3814 76.7715 72.2967 77.0251 72.0425C77.5326 71.5336 77.4323 70.744 76.8183 70.4144C75.9911 69.9707 49.416 70.0151 48.9712 70.4611Z" fill="white" />
   </symbol>
</svg>
