<svg width="512" height="512" viewBox="0 0 512 512" fill="none" xmlns="http://www.w3.org/2000/svg">
<rect width="512" height="512" fill="white"/>
<path d="M255.163 178.379C225.639 267.793 203.816 373.417 227.476 408.645C231.052 413.971 236.611 419.397 250.912 419.397C272.03 419.397 279.945 411.358 284.454 404.313C309.826 365.081 285.292 261.839 255.163 178.379ZM250.912 471C222.318 471 199.41 459.39 184.685 437.425C129.336 354.924 212.903 139.18 230.221 96.7718L252.977 41L277.586 95.945C288.831 120.986 385.496 343.083 327.728 432.364C316.352 449.996 293.785 471 250.912 471Z" fill="#EB4A00"/>
</svg>
